<?xml version="1.0" encoding="utf-8"?>
<!-- Generator: Adobe Illustrator 23.0.3, SVG Export Plug-In . SVG Version: 6.00 Build 0)  -->
<svg version="1.1" xmlns="http://www.w3.org/2000/svg" xmlns:xlink="http://www.w3.org/1999/xlink" x="0px" y="0px"
	 viewBox="0 0 1600 1200" style="enable-background:new 0 0 1600 1200;" xml:space="preserve">
<style type="text/css">
	.st0{fill:#FFFFFF;}
	.st1{stroke:#000000;stroke-miterlimit:10;}
</style>
<g id="bed">
	<path class="st0" d="M0,1011.3c111.5,7.1,176.1-11.4,215-30.8c10.3-5.1,33.7-17.7,68.3-26.7c43.3-11.2,81.1-10.8,106.4-8.7
		c8.4-4,21.9-10.2,39-16.2c27-9.5,39.7-10.5,91.2-23.2c27.3-6.7,41.1-10.2,53.7-15c16-6.1,23.4-10.6,51.3-24c0,0,27.3-13.1,52-24.1
		c41.3-18.2,66.5-29.4,101.1-38.7c27.3-7.3,37.4-7.3,72.4-18c17.1-5.2,31-10.2,40.1-13.7c9.5-16.7,19-34.2,28.4-52.5
		c8.1-15.8,15.7-31.3,22.9-46.4c1.1-10.8,1.9-22.5,2-35c0.2-19.2-1-36.7-2.9-52.2c9.2-4.3,22.6-9.4,39.4-12.2
		c27.5-4.5,49-0.1,59.8,2.2c25.7,5.5,45.4,15.8,58.2,24c9.3-13.5,18.6-27.1,27.9-40.6c14.2-0.4,34.3,0,58.1,4
		c21.9,3.7,51.8,9,84,28.3c13.7,8.2,34.4,22.9,54.2,47.7c-13.8,27.2-20.4,49.4-24,65c-2.2,9.6-5,24.4-11.9,45
		c-3.8,11.3-7.5,20.4-10.1,26.5c11.6-5.5,21.2-7,27.7-7.3c17.2-0.9,26.6,5.2,54.2,9.8c9.4,1.6,17.1,2.3,22,2.7
		c10.2-2.4,24.7-5.3,42.3-6.7c18.2-1.5,47.2-2.1,102,9.8c31,6.7,72.3,17.9,120,37.3c-4.3,135.6-8.6,271.3-13,406.9
		c-548,5.4-1095.9,10.8-1643.9,16.2C-8,1166.9-4,1089.1,0,1011.3z"/>
	<g id="XMLID_706_">
		<g id="XMLID_784_">
			<g id="XMLID_790_">
				<path id="XMLID_791_" class="st1" d="M439.6,938.1c0,0.2-2.5,1-7.1,2.1c-4.6,1.1-11.5,2.3-19.9,3.3c-8.5,1-18.6,1.7-29.9,2.2
					c-11.2,0.5-23.6,0.7-36.5,1.2c-12.9,0.5-25.2,1.4-36.3,2.9c-11.1,1.5-20.9,3.6-29,6c-8.1,2.3-14.5,4.8-18.9,6.6
					c-0.5,0.2-1.1,0.4-1.6,0.6c-0.5,0.2-0.9,0.4-1.3,0.6c-0.8,0.4-1.5,0.7-2.1,0.9c-1.2,0.5-1.8,0.7-1.9,0.6
					c-0.1-0.1,0.5-0.5,1.5-1.2c0.5-0.3,1.2-0.7,2-1.2c0.4-0.2,0.8-0.5,1.3-0.7c0.5-0.2,1-0.5,1.5-0.8c4.2-2.2,10.6-5,18.7-7.7
					c8.1-2.7,18.1-5,29.3-6.7c11.2-1.7,23.6-2.7,36.6-3.2c13-0.5,25.3-0.6,36.6-0.9c11.2-0.3,21.3-0.8,29.7-1.5
					c8.4-0.7,15.2-1.5,19.9-2.2C436.9,938.3,439.5,937.9,439.6,938.1z"/>
			</g>
		</g>
	</g>
	<g id="XMLID_714_">
		<g id="XMLID_792_">
			<g id="XMLID_798_">
				<path id="XMLID_799_" class="st1" d="M644,857.7c0.1,0.2-3.2,2-9.3,5.1s-15,7.5-26,12.8c-5.5,2.7-11.5,5.6-18,8.7
					c-6.5,3.1-13.4,6.5-20.9,9.7c-7.5,3.2-15.5,6.3-24.1,8.6c-8.6,2.3-17.7,3.7-27,4.9c-9.3,1.2-18.3,2.3-26.8,4
					c-8.6,1.6-16.8,3.7-24.5,5.8c-15.5,4.3-29.2,9.3-40.6,13.6c-11.4,4.3-20.6,8.1-26.9,10.5c-6.4,2.5-9.9,3.8-10,3.6
					c-0.1-0.2,3.3-1.9,9.5-4.8c6.2-2.9,15.3-6.9,26.6-11.5c5.7-2.3,11.9-4.7,18.7-7.2c6.8-2.5,14.1-4.9,21.9-7.2
					c7.8-2.3,16.1-4.4,24.8-6.1c8.7-1.7,17.8-2.9,27-4.1c9.2-1.2,18.2-2.6,26.6-4.8c8.4-2.2,16.3-5.1,23.7-8.2
					c7.4-3.1,14.4-6.3,20.9-9.3c6.5-3,12.6-5.8,18.2-8.3c11.1-5.1,20.1-9.1,26.4-11.9C640.4,858.9,643.9,857.5,644,857.7z"/>
			</g>
		</g>
	</g>
	<g id="XMLID_722_">
		<g id="XMLID_800_">
			<g id="XMLID_806_">
				<path id="XMLID_807_" class="st1" d="M533.7,1105.7c-0.5,0.7-32.1-20.3-70.6-47s-69.3-48.9-68.8-49.7c0.5-0.7,32.1,20.3,70.6,47
					C503.4,1082.7,534.2,1105,533.7,1105.7z"/>
			</g>
		</g>
	</g>
	<g id="XMLID_730_">
		<g id="XMLID_808_">
			<g id="XMLID_814_">
				
					<ellipse id="XMLID_815_" transform="matrix(0.9436 -0.331 0.331 0.9436 -300.2332 208.8738)" class="st1" cx="463.1" cy="985.9" rx="71.1" ry="1.6"/>
			</g>
		</g>
	</g>
	<g id="XMLID_738_">
		<g id="XMLID_816_">
			<g id="XMLID_822_">
				<path id="XMLID_823_" class="st1" d="M636.6,1035.2c-0.3,0.4-6.2-3.8-15.6-10.6c-9.4-6.8-22.4-16.2-36.9-26.3
					c-14.5-10.1-27.8-19.1-37.4-25.6c-9.6-6.5-15.5-10.6-15.3-11c0.2-0.4,6.6,3,16.5,9c10,6,23.5,14.7,38,24.9
					c14.5,10.2,27.4,19.9,36.4,27.2C631.5,1030.1,636.9,1034.9,636.6,1035.2z"/>
			</g>
		</g>
	</g>
	<g id="XMLID_746_">
		<g id="XMLID_824_">
			<g id="XMLID_830_">
				<path id="XMLID_831_" class="st1" d="M641.3,1043.5c0.2,0.4-5.4,4.3-14.8,10.1c-9.4,5.9-22.5,13.8-37.2,22.2
					c-14.7,8.4-28.1,15.8-37.9,20.9c-9.8,5.1-16,8.1-16.2,7.7c-0.2-0.4,5.6-4.1,15.1-9.7c9.5-5.6,22.7-13.3,37.4-21.7
					c14.6-8.4,27.9-16,37.6-21.3C635,1046.3,641.1,1043.1,641.3,1043.5z"/>
			</g>
		</g>
	</g>
	<g id="XMLID_754_">
		<g id="XMLID_832_">
			<g id="XMLID_838_">
				<path id="XMLID_839_" class="st1" d="M465.3,995.8c0.5,0.8-4.6,4.7-11.8,8c-7.1,3.3-13.4,4.6-13.7,3.8
					c-0.3-0.9,5.4-3.5,12.3-6.8C459.1,997.6,464.8,995.1,465.3,995.8z"/>
			</g>
		</g>
	</g>
	<g id="XMLID_762_">
		<g id="XMLID_840_">
			<g id="XMLID_846_">
				<path id="XMLID_847_" class="st1" d="M523.3,979.4c0.4,0.8-17.7,10.8-40.3,22.2s-41.4,20.1-41.8,19.3
					c-0.4-0.8,17.7-10.8,40.3-22.2C504.2,987.3,522.9,978.6,523.3,979.4z"/>
			</g>
		</g>
	</g>
	<g id="XMLID_770_">
		<g id="XMLID_848_">
			<g id="XMLID_854_">
				<path id="XMLID_855_" class="st1" d="M506.3,1004.4c0.5,0.8-8.7,7.3-20.9,13.9c-12.2,6.6-22.6,10.8-23,10
					c-0.4-0.8,9.4-6.3,21.5-12.8C496,1008.8,505.8,1003.6,506.3,1004.4z"/>
			</g>
		</g>
	</g>
	<g id="XMLID_778_">
		<g id="XMLID_856_">
			<g id="XMLID_862_">
				<path id="XMLID_863_" class="st1" d="M540.8,1003.6c0.4,0.8-15.2,9-34.3,19c-19.2,10-34.8,18.1-35.3,17.3
					c-0.4-0.8,14.5-10.1,33.7-20.2C524.2,1009.7,540.4,1002.8,540.8,1003.6z"/>
			</g>
		</g>
	</g>
	<g id="XMLID_786_">
		<g id="XMLID_864_">
			<g id="XMLID_870_">
				<path id="XMLID_871_" class="st1" d="M543.7,1021.2c0.5,0.7-10.8,9.2-25.2,18.9c-14.4,9.7-26.5,16.9-27,16.2
					c-0.5-0.7,10.8-9.2,25.2-18.9S543.2,1020.5,543.7,1021.2z"/>
			</g>
		</g>
	</g>
	<g id="XMLID_794_">
		<g id="XMLID_872_">
			<g id="XMLID_878_">
				<path id="XMLID_879_" class="st1" d="M566.6,1026.6c0.5,0.7-10.8,9.9-25.5,20.1c-14.7,10.2-27.2,17.6-27.7,16.9
					c-0.5-0.8,11.2-9.4,25.8-19.6C553.9,1033.8,566.1,1025.9,566.6,1026.6z"/>
			</g>
		</g>
	</g>
	<g id="XMLID_802_">
		<g id="XMLID_880_">
			<g id="XMLID_886_">
				<path id="XMLID_887_" class="st1" d="M681.7,1112.2c-0.2,0.4-5.6-1.2-14.3-4.2c-8.7-3-20.6-7.3-33.6-12.3
					c-13.1-5-24.8-9.6-33.3-13.1c-8.5-3.5-13.6-5.9-13.5-6.3c0.2-0.4,5.6,1.2,14.3,4.2c8.7,3,20.6,7.3,33.6,12.3
					c13.1,5,24.8,9.6,33.3,13.2C676.7,1109.4,681.8,1111.8,681.7,1112.2z"/>
			</g>
		</g>
	</g>
	<g id="XMLID_810_">
		<g id="XMLID_888_">
			<g id="XMLID_894_">
				<path id="XMLID_895_" class="st1" d="M664.7,971.2c0.2,0.4-3.2,2.3-8.6,5.5c-5.4,3.2-12.8,7.8-20.9,13
					c-16.1,10.6-29.6,18.6-30.1,17.8c-0.5-0.7,12.2-10,28.3-20.6c8.1-5.3,15.8-9.6,21.6-12.3C660.7,972,664.5,970.8,664.7,971.2z"/>
			</g>
		</g>
	</g>
	<g id="XMLID_818_">
		<g id="XMLID_896_">
			<g id="XMLID_902_">
				<path id="XMLID_903_" class="st1" d="M785.7,1027.1c-0.2,0.4-7-2.7-17.9-7.8c-10.9-5.1-25.9-12.2-42.6-19.9
					c-16.7-7.7-31.8-14.4-42.8-19.4c-11-4.9-17.7-8.1-17.6-8.5c0.2-0.4,7.2,2,18.5,6.4c11.2,4.4,26.6,10.9,43.3,18.5
					c16.7,7.7,31.6,15.1,42.2,20.8C779.5,1022.9,785.9,1026.7,785.7,1027.1z"/>
			</g>
		</g>
	</g>
	<g id="XMLID_826_">
		<g id="XMLID_904_">
			<g id="XMLID_910_">
				<path id="XMLID_911_" class="st1" d="M790,1032.1c0.3,0.3-5.5,6.3-15,15.8c-9.6,9.5-22.9,22.4-37.9,36.5
					c-7.5,7.1-14.6,13.8-21.1,19.8c-1.6,1.5-3.2,3-4.8,4.4c-1.6,1.4-3.2,2.8-4.9,4c-0.9,0.6-1.8,1.1-2.7,1.6
					c-0.9,0.5-1.9,0.8-2.8,1.1c-1.9,0.6-3.8,0.8-5.5,0.9c-3.5,0-6.7-0.6-9.3-1.4c-2.6-0.8-4.8-1.7-6.5-2.5c-3.4-1.6-5.2-2.7-5.1-2.9
					c0.1-0.2,2.1,0.5,5.6,1.7c1.8,0.6,3.9,1.3,6.5,1.9c2.5,0.6,5.5,1,8.7,0.8c1.6-0.1,3.2-0.4,4.8-1c0.8-0.3,1.6-0.6,2.4-1
					c0.8-0.4,1.6-0.9,2.3-1.5c3-2.2,5.9-5.3,9.2-8.4c6.4-6.2,13.5-12.9,20.9-20c14.9-14.1,28.5-26.8,38.5-35.8
					C783.4,1037.2,789.7,1031.8,790,1032.1z"/>
			</g>
		</g>
	</g>
	<g id="XMLID_834_">
		<g id="XMLID_912_">
			<g id="XMLID_918_">
				<path id="XMLID_919_" class="st1" d="M655.5,1000.5c0.6,0.6-2.9,5.3-8.9,9.3c-5.9,4-11.6,5.6-11.9,4.8
					c-0.4-0.9,4.5-3.7,10.1-7.5C650.5,1003.3,654.9,999.9,655.5,1000.5z"/>
			</g>
		</g>
	</g>
	<g id="XMLID_842_">
		<g id="XMLID_920_">
			<g id="XMLID_926_">
				<path id="XMLID_927_" class="st1" d="M684.1,1013c0.6,0.6-11,13.6-26.6,28.4c-15.6,14.8-29.1,25.8-29.7,25.1
					c-0.6-0.7,11.9-12.7,27.4-27.5C670.8,1024.2,683.5,1012.3,684.1,1013z"/>
			</g>
		</g>
	</g>
	<g id="XMLID_850_">
		<g id="XMLID_928_">
			<g id="XMLID_934_">
				<path id="XMLID_935_" class="st1" d="M677.3,1039.3c0.7,0.6-5.3,8-13.3,16.5s-15,14.9-15.6,14.3c-0.7-0.6,5.3-8,13.3-16.5
					S676.7,1038.7,677.3,1039.3z"/>
			</g>
		</g>
	</g>
	<g id="XMLID_858_">
		<g id="XMLID_936_">
			<g id="XMLID_942_">
				<path id="XMLID_943_" class="st1" d="M705.1,1038c0.6,0.6-8.4,10.9-20.3,22.9c-11.8,12-22,21.2-22.6,20.6
					c-0.6-0.6,8.4-10.9,20.3-22.9C694.3,1046.5,704.4,1037.3,705.1,1038z"/>
			</g>
		</g>
	</g>
	<g id="XMLID_866_">
		<g id="XMLID_944_">
			<g id="XMLID_950_">
				<path id="XMLID_951_" class="st1" d="M669.2,1156.8c-0.8-0.3,5.3-18.7,13.7-41.1c8.4-22.4,15.9-40.3,16.8-40
					c0.8,0.3-5.3,18.7-13.7,41.1C677.5,1139.2,670,1157.1,669.2,1156.8z"/>
			</g>
		</g>
	</g>
	<g id="XMLID_874_">
		<g id="XMLID_952_">
			<g id="XMLID_958_">
				<path id="XMLID_959_" class="st1" d="M709.8,1082.2c-0.5-0.1-0.7-0.9-1.2-1.9c-0.5-1-1.4-2.3-2.6-3c-1.3-0.8-2.8-0.9-3.9-0.9
					c-1.1,0-2,0.2-2.3-0.2c-0.3-0.3,0.2-1.3,1.6-2c1.4-0.7,3.9-1,6.2,0.3c2.3,1.4,3.2,3.8,3.2,5.3
					C710.9,1081.4,710.2,1082.3,709.8,1082.2z"/>
			</g>
		</g>
	</g>
	<g id="XMLID_882_">
		<g id="XMLID_960_">
			<g id="XMLID_966_">
				<path id="XMLID_967_" class="st1" d="M710.1,1082.1c0.4,0.1-1.2,5.7-4.3,14.6c-3.1,8.8-7.8,20.9-13.6,34
					c-3.4,7.7-6.8,14.9-10,21.2c-1.6,3.1-3.1,6.1-4.5,8.7c-1.8,3.4-3.4,6.5-4.9,9.1c-0.8-2.4-1.5-4.5-2-6.2
					c-0.1-0.4-0.2-0.7-0.3-1.1c-0.1-0.3-0.2-0.6-0.2-0.8c-0.1-0.5-0.3-1-0.4-1.4c-0.5-1.7-0.6-2.7-0.4-2.8c0.2-0.1,0.7,0.8,1.4,2.4
					c0.3,0.8,0.8,1.7,1.3,2.8c0.3,0.6,0.6,1.3,1,2.1c0.3-0.7,0.6-1.4,1-2.2c0.2-0.3,0.3-0.7,0.5-1.1c0.3-0.6,0.6-1.3,0.9-2
					c1.2-2.7,2.6-5.7,4.1-8.9c2.9-6.4,6.2-13.6,9.6-21.3c5.8-13,10.8-24.9,14.4-33.5C707.3,1087.2,709.7,1081.9,710.1,1082.1z"/>
			</g>
		</g>
	</g>
	<g id="XMLID_890_">
		<g id="XMLID_968_">
			<g id="XMLID_974_">
				<path id="XMLID_975_" class="st1" d="M672.5,1153.4c-0.9-0.4,6.1-17.7,14-39.2c7.9-21.5,13.8-39.2,14.7-38.9
					c0.8,0.2-3.7,18.4-11.6,40C681.6,1137,673.3,1153.8,672.5,1153.4z"/>
			</g>
		</g>
	</g>
	<g id="XMLID_898_">
		<g id="XMLID_976_">
			<g id="XMLID_982_">
				<path id="XMLID_983_" class="st1" d="M672.9,1162.9c-0.2,0-0.4-1.3-0.2-3.7c0.1-2.4,0.7-5.8,1.9-9.8c1.2-4,2.9-8.7,4.8-13.8
					c1.9-5.1,4-10.8,6.3-16.7c4.6-11.8,8.9-22.4,12.1-30.1c3.3-7.6,5.5-12.3,5.9-12.1s-1,5.1-3.8,12.9c-2.7,7.8-6.7,18.6-11.2,30.4
					c-2.3,5.9-4.5,11.5-6.5,16.6c-2,5.1-4,9.6-5.4,13.5C673.8,1157.8,673.3,1162.9,672.9,1162.9z"/>
			</g>
		</g>
	</g>
	<g id="XMLID_906_">
		<g id="XMLID_984_">
			<g id="XMLID_990_">
				<path id="XMLID_991_" class="st1" d="M673,1160.7c-0.4,0.2-1-0.1-1.5-0.9c-0.5-0.7-1-1.8-1.1-3.1c-0.1-1.3,0.1-2.5,0.5-3.3
					c0.4-0.8,0.9-1.2,1.3-1.1c0.9,0.2,1.3,2,1.5,4.1C673.9,1158.5,673.8,1160.3,673,1160.7z"/>
			</g>
		</g>
	</g>
	<g id="XMLID_914_">
		<g id="XMLID_992_">
			<g id="XMLID_998_">
				<path id="XMLID_999_" class="st1" d="M703.8,1077.7c0.4,0.1-0.7,5.1-2.9,13c-2.3,7.9-5.7,18.7-9.8,30.5
					c-4.2,11.8-8.3,22.3-11.5,29.9c-3.2,7.5-5.5,12.1-5.9,11.9c-0.9-0.3,6-19.4,14.3-42.9C696.3,1096.5,702.9,1077.4,703.8,1077.7z"
					/>
			</g>
		</g>
	</g>
	<g id="XMLID_922_">
		<g id="XMLID_1000_">
			<g id="XMLID_1006_">
				<path id="XMLID_1007_" class="st1" d="M706.3,1084.8c-0.4-0.1-0.7-0.7-1-1.5c-0.3-0.8-0.6-1.8-1.1-2.8c-0.5-1-1.1-1.9-1.5-2.6
					c-0.4-0.7-0.8-1.3-0.6-1.7c0.2-0.4,0.9-0.5,2-0.1c1,0.4,2.3,1.5,3,3c0.8,1.5,0.8,3.2,0.5,4.2
					C707.3,1084.4,706.7,1084.9,706.3,1084.8z"/>
			</g>
		</g>
	</g>
	<g id="XMLID_930_">
		<g id="XMLID_1008_">
			<g id="XMLID_1014_">
				<path id="XMLID_1015_" class="st1" d="M699.8,1094.9c-0.8-0.4,0.3-4,0.5-8.4c0.3-4.4-0.3-8.1,0.6-8.4c0.4-0.1,1.1,0.7,1.8,2.2
					c0.6,1.5,1.1,3.8,0.9,6.4c-0.2,2.5-0.9,4.8-1.7,6.2C701,1094.4,700.2,1095.1,699.8,1094.9z"/>
			</g>
		</g>
	</g>
	<g id="XMLID_938_">
		<g id="XMLID_1016_">
			<g id="XMLID_1022_">
				<path id="XMLID_1023_" class="st1" d="M699.5,1100.9c-0.9-0.4,0.6-5.4,1.6-11.7c1-6.3,1.1-11.5,2-11.6c0.4,0,1,1.3,1.3,3.5
					c0.3,2.2,0.4,5.3-0.1,8.7c-0.5,3.4-1.5,6.3-2.5,8.3C700.9,1100,699.9,1101.1,699.5,1100.9z"/>
			</g>
		</g>
	</g>
	<g id="XMLID_946_">
		<g id="XMLID_1024_">
			<g id="XMLID_1030_">
				<path id="XMLID_1031_" class="st1" d="M701.9,1085.4c-0.9-0.1-1.4-2.2-1.5-4.7c-0.1-2.5,0.2-4.6,1.1-4.8c0.9-0.2,2,1.9,2.1,4.7
					C703.8,1083.3,702.8,1085.5,701.9,1085.4z"/>
			</g>
		</g>
	</g>
	<g id="XMLID_954_">
		<g id="XMLID_1032_">
			<g id="XMLID_1038_">
				<path id="XMLID_1039_" class="st1" d="M688.5,1130c-0.8-0.4,3.5-11.7,9-25.5c5.6-13.8,10.3-24.9,11.2-24.6
					c0.8,0.3-2.6,12-8.2,25.8C695,1119.6,689.3,1130.3,688.5,1130z"/>
			</g>
		</g>
	</g>
	<g id="XMLID_962_">
		<g id="XMLID_1040_">
			<g id="XMLID_1046_">
				<path id="XMLID_1047_" class="st1" d="M699.1,1101c-0.8-0.4,0.8-5,3.3-10.3c2.4-5.3,4.8-9.5,5.6-9.2c0.8,0.3-0.2,5.1-2.7,10.6
					C702.9,1097.5,699.9,1101.4,699.1,1101z"/>
			</g>
		</g>
	</g>
	<g id="XMLID_753_">
		<g id="XMLID_1056_">
			<g id="XMLID_1062_">
				<path id="XMLID_1063_" class="st1" d="M1202.6,882.6c0,0.5-3.5,0.7-8.7,2.3c-5.2,1.6-12,4.9-18.5,10.1
					c-6.5,5.3-11.4,11.1-14.9,15.4c-3.5,4.3-5.7,7-6.1,6.7c-0.4-0.2,1.1-3.4,4.2-8.1c3.1-4.7,7.9-11,14.7-16.5c3.4-2.7,7-5,10.4-6.6
					c3.4-1.6,6.7-2.7,9.6-3.2C1199.1,881.6,1202.7,882.2,1202.6,882.6z"/>
			</g>
		</g>
	</g>
	<g id="XMLID_771_">
		<g id="XMLID_1064_">
			<g id="XMLID_1070_">
				<path id="XMLID_1071_" class="st1" d="M1200.2,925.1c0.1,0.9-6.2,2.1-13.4,5c-7.2,2.9-12.4,6.6-13,5.8c-0.3-0.3,0.7-1.7,2.8-3.5
					c2-1.8,5.2-3.8,9-5.4c3.8-1.6,7.5-2.3,10.2-2.5C1198.5,924.3,1200.1,924.6,1200.2,925.1z"/>
			</g>
		</g>
	</g>
	<g id="XMLID_772_">
		<g id="XMLID_1072_">
			<g id="XMLID_1078_">
				<path id="XMLID_1079_" class="st1" d="M1121,956.9c0,0.5-2.7,0.7-6.8,1.5c-1,0.2-2.2,0.4-3.3,0.7c-1.2,0.3-2.4,0.7-3.8,1
					c-2.6,0.8-5.4,1.9-8.3,3.2c-2.9,1.4-5.5,2.9-7.8,4.4c-1.1,0.8-2.2,1.5-3.2,2.3c-1,0.7-1.9,1.5-2.7,2.1c-3.2,2.7-5.1,4.6-5.5,4.3
					c-0.3-0.2,0.9-2.7,3.9-6c0.7-0.8,1.6-1.7,2.5-2.5c0.9-0.9,2-1.7,3.2-2.7c2.3-1.7,5.1-3.5,8.1-4.9c3-1.4,6.1-2.5,8.9-3.2
					c1.4-0.3,2.8-0.6,4.1-0.8c1.3-0.2,2.5-0.3,3.6-0.4C1118.4,955.9,1121,956.5,1121,956.9z"/>
			</g>
		</g>
	</g>
	<g id="XMLID_773_">
		<g id="XMLID_1080_">
			<g id="XMLID_1086_">
				<path id="XMLID_1087_" class="st1" d="M1163.6,957.6c0,1-6.5,1.5-13.4,5c-7,3.4-11.4,8.2-12.2,7.6c-0.3-0.3,0.3-1.9,2.1-4
					c0.9-1.1,2.1-2.2,3.5-3.4c1.5-1.1,3.2-2.2,5.1-3.2c1.9-0.9,3.8-1.6,5.6-2.1c1.8-0.4,3.4-0.7,4.8-0.7
					C1161.9,956.7,1163.6,957.2,1163.6,957.6z"/>
			</g>
		</g>
	</g>
	<g id="XMLID_774_">
		<g id="XMLID_1088_">
			<g id="XMLID_1094_">
				<path id="XMLID_1095_" class="st1" d="M981.5,1036c-0.1,0.5-3.8,0-9.7-0.2c-0.7,0-1.5-0.1-2.3-0.1c-0.8,0-1.6,0-2.5,0
					c-1.7,0-3.6,0.1-5.5,0.1c-3.9,0.2-8.1,0.6-12.6,1.4c-4.4,0.8-8.6,1.8-12.3,2.9c-1.9,0.6-3.6,1.1-5.2,1.8
					c-0.8,0.3-1.6,0.6-2.4,0.9c-0.7,0.3-1.5,0.6-2.2,0.9c-5.5,2.2-8.8,3.9-9,3.5c-0.2-0.3,2.7-2.7,8.1-5.6c0.7-0.3,1.4-0.7,2.1-1.1
					c0.7-0.4,1.5-0.7,2.4-1.1c1.6-0.8,3.4-1.4,5.3-2.1c3.8-1.3,8.1-2.5,12.7-3.3c4.6-0.8,9-1.1,13-1.2c2,0,3.9,0,5.7,0.2
					c0.9,0.1,1.8,0.1,2.6,0.2c0.8,0.1,1.6,0.2,2.4,0.3C978.1,1034.3,981.6,1035.6,981.5,1036z"/>
			</g>
		</g>
	</g>
	<g id="XMLID_775_">
		<g id="XMLID_1096_">
			<g id="XMLID_1102_">
				<path id="XMLID_1103_" class="st1" d="M1047,1028.6c0.2,0.9-5.1,2.9-11.5,5.8c-6.4,2.9-11.4,5.5-12,4.7
					c-0.5-0.7,3.9-4.7,10.6-7.7C1040.8,1028.5,1046.8,1027.8,1047,1028.6z"/>
			</g>
		</g>
	</g>
	<g id="XMLID_978_">
		<g id="XMLID_1104_">
			<g id="XMLID_1110_">
				<path id="XMLID_1111_" class="st1" d="M1064,1001.3c0.1,1-9.9,1.6-20.9,6.5c-11.1,4.8-18.3,11.7-19,10.9
					c-0.3-0.3,1.1-2.4,4.2-5.2c1.5-1.4,3.4-2.9,5.7-4.5c2.3-1.5,4.9-3,7.8-4.3c2.9-1.3,5.8-2.2,8.4-2.9c2.7-0.6,5.1-1,7.1-1.2
					C1061.4,1000.5,1064,1000.8,1064,1001.3z"/>
			</g>
		</g>
	</g>
	<g id="XMLID_1_">
		<g>
			<g>
				<path class="st1" d="M1159,624.8c-0.1,0.4-6.1-0.5-15.6-3.1c-9.5-2.6-22.4-6.9-36-13.2c-6.8-3.1-13.2-6.4-18.8-9.6
					c-5.7-3.2-10.6-6.3-14.7-8.9c-8.3-5.1-13.8-7.5-13.6-8c0.1-0.2,1.6,0.1,4.2,1c2.6,0.9,6.3,2.6,10.6,4.9c4.3,2.3,9.4,5.2,15,8.2
					c5.7,3,12,6.2,18.8,9.2c13.5,6.2,26.1,10.8,35.4,13.9C1153.3,622.6,1159.1,624.3,1159,624.8z"/>
			</g>
		</g>
	</g>
	<g id="XMLID_1010_">
		<g id="XMLID_1119_">
			<g id="XMLID_1125_">
				<path id="XMLID_1126_" class="st1" d="M1116.4,794.6c-0.5-0.2,3.8-9,9-23.8c5.2-14.7,10.9-35.8,13-59.6
					c1-11.9,1.3-23.3,2.2-33.8c0.9-10.4,2.3-19.8,4.5-27.5c2.2-7.7,5-13.6,7.4-17.3c0.3-0.5,0.6-0.9,0.8-1.3
					c0.3-0.4,0.6-0.8,0.8-1.1c0.5-0.7,0.9-1.3,1.3-1.7c0.7-0.9,1.1-1.4,1.2-1.3c0.1,0.1-0.1,0.6-0.7,1.7c-0.3,0.5-0.6,1.1-1,1.9
					c-0.2,0.4-0.4,0.8-0.7,1.2c-0.2,0.4-0.4,0.9-0.7,1.4c-2,3.9-4.4,9.7-6.3,17.3c-1.9,7.5-3,16.8-3.7,27.1
					c-0.7,10.3-0.8,21.8-1.9,33.8c-2.1,24.1-8.2,45.4-14.1,60.1c-2.9,7.4-5.6,13.2-7.7,17.1C1117.9,792.6,1116.6,794.7,1116.4,794.6
					z"/>
			</g>
		</g>
	</g>
	<g id="XMLID_1050_">
		<g id="XMLID_1127_">
			<g id="XMLID_1133_">
				<path id="XMLID_1134_" class="st1" d="M1110.7,791.8c0,0.1-0.4,0.1-1.1-0.1c-0.4-0.1-0.8-0.2-1.3-0.3c-0.5-0.1-1.1-0.2-1.7-0.3
					c-2.6-0.5-6.5-0.8-11.2-0.6c-4.8,0.2-10.4,1.2-16.8,2.2c-6.4,1-13.5,1.8-21,2.1c-15,0.5-28.5-1.3-38.1-3.4
					c-9.6-2.1-15.2-4.3-15.1-4.7c0.1-0.5,6,1,15.5,2.4c9.5,1.5,22.9,2.8,37.6,2.4c7.4-0.2,14.3-0.9,20.7-1.8
					c6.4-0.9,12.2-1.6,17.2-1.5c5,0,9,0.8,11.6,1.7c0.6,0.2,1.2,0.5,1.7,0.6c0.5,0.2,0.9,0.4,1.2,0.6
					C1110.4,791.5,1110.8,791.7,1110.7,791.8z"/>
			</g>
		</g>
	</g>
	<g id="XMLID_1058_">
		<g id="XMLID_1135_">
			<g id="XMLID_1139_">
				<path id="XMLID_1140_" class="st1" d="M1126.5,559.5c0.7,0.6-6.4,9.1-13.6,20.5c-1.8,2.8-3.5,5.6-5,8.1c-1.5,2.5-2.8,4.8-4,6.8
					c-1.2,1.9-2.4,3.4-3.4,4.3c-1,0.9-1.7,1.1-1.8,1c-0.2-0.2,0.2-0.8,0.9-1.8c0.6-1,1.5-2.5,2.4-4.5c0.9-2,2-4.5,3.4-7.1
					c1.4-2.7,3-5.5,4.9-8.4c3.7-5.8,7.7-10.7,10.7-14C1123.9,561,1126.1,559.2,1126.5,559.5z"/>
			</g>
		</g>
	</g>
	<g id="XMLID_1066_">
		<g id="XMLID_1142_">
			<g id="XMLID_1147_">
				<path id="XMLID_1148_" class="st1" d="M1322.4,638.5c-0.1,0.1-0.6-0.5-1.6-1.5c-0.5-0.5-1.1-1.2-1.7-2c-0.3-0.4-0.7-0.8-1.1-1.3
					c-0.4-0.4-0.8-0.9-1.3-1.4c-0.9-1-1.9-2.1-3-3.3c-1.1-1.2-2.4-2.5-3.7-3.9c-1.3-1.4-2.8-2.8-4.4-4.3c-1.5-1.5-3.3-3-5.1-4.6
					c-0.5-0.4-0.9-0.8-1.4-1.2c-0.5-0.4-1-0.8-1.4-1.2c-1-0.8-2-1.6-3-2.5c-2.1-1.7-4.2-3.3-6.5-5c-2.3-1.6-4.7-3.4-7.2-5
					c-1.3-0.8-2.5-1.7-3.8-2.5c-1.3-0.8-2.7-1.6-4-2.5c-5.5-3.3-11.3-6.5-17.6-9.5c-6.3-3-12.9-5.8-19.8-8.4
					c-13.8-5.1-27.5-8.7-40-11.3c-12.5-2.6-24-4.2-33.6-5.4c-9.6-1.1-17.5-1.8-22.9-2.3c-5.4-0.5-8.4-0.8-8.4-1c0-0.2,3-0.3,8.5-0.3
					c5.4,0.1,13.3,0.4,23.1,1.2c9.7,0.8,21.3,2.3,34,4.7c12.7,2.5,26.5,6,40.5,11.2c7,2.6,13.7,5.5,20.1,8.6
					c6.4,3.1,12.3,6.4,17.8,9.8c1.4,0.9,2.7,1.7,4.1,2.6c1.3,0.9,2.6,1.8,3.9,2.6c2.6,1.7,4.9,3.5,7.2,5.2c2.3,1.8,4.4,3.5,6.5,5.2
					c1,0.9,2,1.7,3,2.6c0.5,0.4,1,0.8,1.4,1.3c0.5,0.4,0.9,0.9,1.3,1.3c1.8,1.7,3.5,3.3,5,4.9c1.5,1.6,3,3,4.3,4.5
					c1.3,1.5,2.5,2.8,3.6,4.1c1,1.3,2,2.5,2.8,3.6c0.4,0.5,0.8,1,1.2,1.5c0.3,0.5,0.7,1,1,1.4c0.6,0.9,1.1,1.6,1.5,2.2
					C1322.1,637.8,1322.5,638.5,1322.4,638.5z"/>
			</g>
		</g>
	</g>
	<g id="XMLID_1074_">
		<g id="XMLID_1151_">
			<g id="XMLID_1156_">
				<path id="XMLID_1157_" class="st1" d="M1267,795.4c-0.2-0.1,0.7-2.3,2.4-6.1c1.7-3.8,4.4-9.3,7.4-16.1c3-6.9,6.3-15.1,8.7-24.6
					c2.5-9.5,3.8-20.4,7.2-31.5c1.7-5.5,3.6-10.8,5.4-15.9c1.9-5.1,3.7-9.9,5.5-14.6c3.5-9.3,6.7-17.6,9.5-24.6s5-12.6,6.6-16.5
					c1.6-3.9,2.6-6,2.9-5.9c0.2,0.1-0.4,2.3-1.7,6.3s-3.2,9.8-5.7,16.9c-2.5,7.1-5.4,15.5-8.8,24.9c-1.7,4.7-3.5,9.6-5.3,14.6
					c-1.8,5.1-3.7,10.3-5.3,15.7c-3.3,10.8-4.8,21.6-7.5,31.3c-2.7,9.7-6.3,18-9.5,24.8c-3.3,6.8-6.3,12.1-8.3,15.8
					C1268.5,793.6,1267.2,795.5,1267,795.4z"/>
			</g>
		</g>
	</g>
	<g id="XMLID_1082_">
		<g id="XMLID_1160_">
			<g id="XMLID_1165_">
				<path id="XMLID_1166_" class="st1" d="M1244.1,824.4c-0.1,0.2-2.1-0.5-5.7-1.6c-3.6-1.1-8.9-2.6-15.6-3.6c-3.3-0.5-7-0.9-10.9-1
					c-3.9-0.1-8.2,0-12.6,0.3c-8.9,0.5-18.8,1.9-29.3,1.9c-10.5,0-20.5-1.6-29.3-4c-4.4-1.2-8.5-2.7-12.3-4.1
					c-3.7-1.6-7.2-3.1-10.2-4.7c-6.1-3.2-10.7-6.3-13.7-8.7c-3-2.4-4.5-3.8-4.4-4c0.2-0.2,1.9,0.9,5.1,3c3.2,2,7.9,4.8,14,7.7
					c3,1.5,6.4,2.9,10.1,4.3c3.7,1.3,7.7,2.7,12.1,3.7c8.6,2.2,18.3,3.6,28.6,3.7c10.2,0,20.1-1.3,29.1-1.6c4.5-0.2,8.9-0.2,12.9,0
					c4.1,0.3,7.8,0.8,11.2,1.4c6.8,1.3,12,3.2,15.6,4.7C1242.3,823.1,1244.2,824.2,1244.1,824.4z"/>
			</g>
		</g>
	</g>
	<g id="XMLID_1090_">
		<g id="XMLID_1145_">
			<g id="XMLID_1161_">
				<path id="XMLID_1167_" class="st1" d="M1216.5,672.8c0.1,0.5-4.7,1.9-11.9,5.7c-3.6,1.9-7.7,4.3-12.3,7.2
					c-4.5,2.9-9.6,6.1-14.8,9.4c-5.3,3.3-10.4,6.4-15,9.2c-4.6,2.8-8.8,5.3-12,7.6c-6.6,4.6-9.7,8.6-10.1,8.3
					c-0.2-0.1,0.4-1.3,1.8-3.2c1.4-1.9,3.7-4.3,6.9-7c3.2-2.6,7.3-5.4,11.9-8.3c4.5-2.9,9.6-6.1,14.9-9.4c5.3-3.3,10.3-6.4,15-9.2
					c4.7-2.8,9-5.1,12.8-6.7C1211.2,673.1,1216.4,672.5,1216.5,672.8z"/>
			</g>
		</g>
	</g>
	<g id="XMLID_11_">
		<g id="XMLID_30_">
			<g id="XMLID_34_">
				<path id="XMLID_35_" class="st1" d="M1414.6,793.5c-0.1,0.4-7.5-1.1-19.4-4c-11.9-2.9-28.3-7.1-46.3-11.9
					c-9-2.4-17.6-4.5-25.5-5.8c-7.9-1.4-15.1-1.9-21.1-1.7c-12.1,0.3-19.3,3.1-19.4,2.5c0-0.1,0.4-0.4,1.2-0.7
					c0.4-0.2,0.9-0.4,1.6-0.7c0.6-0.3,1.3-0.5,2.2-0.8c3.3-1.1,8.2-2.2,14.4-2.7c6.2-0.5,13.6-0.2,21.7,1.1
					c8.1,1.2,16.8,3.3,25.9,5.7c18.1,4.8,34.3,9.4,46.1,12.8C1407.5,790.7,1414.7,793,1414.6,793.5z"/>
			</g>
		</g>
	</g>
	<g id="XMLID_12_">
		<g id="XMLID_36_">
			<g id="XMLID_40_">
				<path id="XMLID_41_" class="st1" d="M1505.3,779.6c-0.1,0.5-7.8-0.4-20.2-1.7c-12.4-1.2-29.6-2.9-48.5-2.5
					c-9.5,0.2-18.5,0.9-26.6,2.1c-8.1,1.1-15.3,2.9-21.5,4c-3.1,0.5-6,0.7-8.6,0.7c-2.6-0.1-4.7-0.5-6.5-1c-3.5-1.1-4.9-2.6-4.8-2.7
					c0.1-0.3,1.8,0.8,5.2,1.5c1.7,0.3,3.7,0.5,6.1,0.4c2.4-0.1,5.2-0.5,8.2-1.1c6-1.3,13.3-3.4,21.5-4.7c8.2-1.3,17.4-2.2,27-2.4
					c19.2-0.4,36.5,1.7,48.9,3.5C1497.8,777.6,1505.4,779.2,1505.3,779.6z"/>
			</g>
		</g>
	</g>
	<g>
		<g>
			<g>
				<path class="st1" d="M870.6,777.3c0.1,0.1-0.6,0.6-2,1.5c-0.7,0.4-1.5,0.9-2.6,1.5c-1,0.6-2.2,1.2-3.6,1.9
					c-5.5,2.7-13.9,5.8-24.5,8.5c-5.3,1.4-11.1,2.7-17.4,4.1c-3.1,0.7-6.3,1.5-9.7,2.3c-1.7,0.4-3.3,0.8-5,1.2
					c-1.7,0.4-3.4,0.9-5.2,1.3c-13.9,3.5-29.1,7.9-44.9,13.1c-31.6,10.3-59.2,22.2-78.9,31.4c-9.8,4.7-17.7,8.6-23.2,11.3
					c-5.4,2.7-8.5,4.2-8.6,4c-0.1-0.2,2.7-2,8-5.1c5.3-3.1,13-7.3,22.8-12.2c19.5-9.8,47.2-22.1,78.9-32.5
					c15.8-5.2,31.2-9.5,45.2-12.9c1.8-0.4,3.5-0.8,5.2-1.3c1.7-0.4,3.4-0.8,5.1-1.1c3.3-0.7,6.6-1.5,9.7-2.1
					c6.3-1.3,12.1-2.5,17.4-3.7c10.6-2.4,18.9-5.1,24.6-7.4C867.5,778.6,870.5,777,870.6,777.3z"/>
			</g>
		</g>
	</g>
	<g>
		<g>
			<g>
				<path class="st1" d="M891.5,770.6c-0.2-0.1,0.9-2.7,3.2-7.2c2.2-4.5,5.5-11,9.7-19c4.2-8,9.1-17.4,14.7-27.9
					c2.8-5.2,5.7-10.7,8.8-16.4c3.1-5.7,6.3-11.5,9-17.7c1.3-3.1,2.5-6.2,3.4-9.3c0.4-1.6,0.8-3.2,1.1-4.7c0.2-0.8,0.3-1.6,0.4-2.4
					c0.1-0.8,0.2-1.6,0.4-2.4c0.9-6.3,0.9-12.4,0.7-18.3c-0.6-11.7-2.2-22.4-2.9-31.3c-0.8-9-0.9-16.3-0.5-21.4
					c0.1-2.5,0.5-4.5,0.7-5.8c0.2-1.3,0.4-2,0.5-2c0.1,0,0.2,0.7,0.2,2c0,1.3-0.1,3.3-0.1,5.8c0,5,0.4,12.2,1.5,21.1
					c1.1,8.9,2.9,19.4,3.6,31.4c0.3,6,0.3,12.3-0.5,18.9c-0.1,0.8-0.2,1.6-0.4,2.5c-0.1,0.8-0.2,1.7-0.4,2.5c-0.4,1.6-0.8,3.3-1.2,5
					c-0.9,3.3-2.2,6.5-3.5,9.7c-2.8,6.4-6.1,12.3-9.2,17.9c-3.1,5.7-6.1,11.1-9,16.3c-5.7,10.4-10.9,19.8-15.3,27.6
					c-4.4,7.8-8,14.1-10.6,18.5C893.2,768.4,891.7,770.7,891.5,770.6z"/>
			</g>
		</g>
	</g>
	<g>
		<g>
			<g>
				<path class="st1" d="M1017.4,787.6c0.1,0.2-1.6,0.9-4.8,1.7c-3.2,0.8-7.9,1.6-13.8,1.8c-5.9,0.3-12.9-0.1-20.6-1.2
					c-3.8-0.6-7.8-1.3-12-2.2c-4.1-0.9-8.4-1.9-12.7-3c-8.6-2.2-16.8-4.4-24.2-6.2c-7.4-1.8-14.2-3.2-19.9-4.1
					c-11.4-1.8-18.6-1.7-18.6-2.2c0-0.2,1.8-0.5,5.1-0.6c3.3-0.2,8,0,13.9,0.6c5.8,0.6,12.7,1.8,20.3,3.5c7.5,1.7,15.7,3.8,24.3,6
					c4.3,1.1,8.5,2.1,12.6,3c4.1,0.9,8,1.7,11.8,2.3c7.5,1.2,14.4,1.9,20.1,1.9C1010.2,788.9,1017.2,787.1,1017.4,787.6z"/>
			</g>
		</g>
	</g>
	<g>
		<g>
			<g>
				<path class="st1" d="M1068.7,586.1c-0.1,0.2-1.9-0.3-5-1.5c-0.8-0.3-1.6-0.6-2.6-1c-1-0.3-2-0.7-3.1-1c-2.2-0.7-4.7-1.7-7.6-2.4
					c-1.4-0.4-2.9-0.8-4.5-1.3c-1.6-0.4-3.2-0.8-4.9-1.2c-3.4-0.9-7-1.4-10.9-2.1c-7.7-1.2-16.3-2-25.3-2c-9,0-17.5,0.8-25.3,2
					c-3.8,0.7-7.5,1.3-10.9,2.1c-1.7,0.4-3.3,0.7-4.9,1.2c-1.6,0.4-3,0.9-4.5,1.3c-2.9,0.7-5.4,1.7-7.6,2.4c-1.1,0.4-2.2,0.7-3.1,1
					c-0.9,0.4-1.8,0.7-2.6,1c-3.1,1.2-4.9,1.7-5,1.5s1.5-1.1,4.5-2.7c0.8-0.4,1.6-0.8,2.5-1.2c0.9-0.4,2-0.8,3.1-1.3
					c2.2-0.9,4.7-2,7.6-2.9c1.4-0.5,2.9-1,4.5-1.5c1.6-0.5,3.2-0.9,4.9-1.4c3.4-1,7.1-1.7,11-2.5c7.8-1.3,16.6-2.3,25.8-2.3
					c9.2,0,17.9,1,25.8,2.3c3.9,0.8,7.6,1.5,11,2.5c1.7,0.5,3.4,0.9,4.9,1.4c1.6,0.5,3,1,4.5,1.5c2.9,0.9,5.4,2,7.6,2.9
					c1.1,0.5,2.1,0.9,3.1,1.3c0.9,0.5,1.7,0.9,2.5,1.3C1067.2,585,1068.8,585.9,1068.7,586.1z"/>
			</g>
		</g>
	</g>
</g>
<g id="girl">
	<g id="body">
		<path class="st0" d="M767.1,565c-2.9,8.8-6.4,15.8-9.6,26.8c-1.2,4.2-2.4,9-3.3,14.6c-1.3,7.5-0.7,8-1.8,14.9
			c-2.7,16.9-8.6,30.1-13.7,39.4c-67.8-8-135.5-16.1-203.3-24.1c11.1,38.6,22.9,77.8,35.4,117.4c5.5,17.5,11.1,34.9,16.7,52
			c23.9,7.6,47.7,15.1,71.6,22.7c-4.4,4.9-11.9,14.7-14.9,29.1c-3.7,18.1,2.2,32.7,5.5,40.3c3.5,8.3,14.9,31.6,60.5,57.2
			c7.4,4.2,38.9,21.4,100.6,34.3c24.9,5.2,59.3,10.7,101.1,12l8.4-16.8c10.8,0.9,21.5,1.9,32.3,2.8c5.6,6.6,11.6,13.4,17.9,20.2
			c12.3,13.1,24.4,24.8,36.2,35.2c3.5-1.6,8.7-4.6,10.6-10c1.7-4.7,0-8.9-8.3-26.2c-6.3-13.2-9.6-19.9-12.7-25.6
			c-4.8-8.8-9.1-16-12.3-21.1c8.3-0.9,16.6-1.8,24.9-2.6c4.5-6.8,9.4-15.6,13.3-26.5c2.2-6,3.7-11.7,4.7-16.8
			c8.4-1.6,16.9-3.3,25.3-4.9c17.9,6.5,32.1,13,42.3,17.9c25,12.2,39.5,22.2,48.4,16.2c3.2-2.1,5.5-6.1,5.5-9.9
			c0.1-6.6-6.7-11.3-12.5-15.6c-12.6-9.3-24.6-19.6-31.6-26.3c-12.3-11.9-14.7-18.6-28.2-26.9c-4.2-2.6-7.9-4.4-10.5-5.5
			c-2.5,0.7-6.6,2.3-10.7,5.6c-5.2,4.3-7.6,9.4-8.6,11.9c-8.2,1.2-16.4,2.3-24.6,3.5c-3.8-8.2-7.6-16.4-11.4-24.6
			c-14.9,2.3-29.8,4.7-44.8,7c6.1-6.5,14.3-16.5,21.4-30.1c12.6-24,14.4-44.8,15.5-60.3c2-26.7-3.2-36.4-6.4-41.1
			c-3.1-4.5-6.5-7.5-9.1-9.4c-2.2-8.1-4.4-16.3-6.6-24.4c2.2-2.4,6.8-8.3,8.3-17.2c1.9-10.9-1.9-19.4-3.4-22.1
			c1.2-8,2.3-19.1,1.8-32.4c-0.7-16-1.9-44.3-20.2-72.2c-16.7-25.4-39.1-37.4-50-43.2c-12.2-6.4-23.3-10-31.3-12
			c-88.3,12.2-110.6,28.2-113.2,41.1C771.5,543.1,771.4,551.9,767.1,565z M809,746.1c-6.3,6.3-4.1,11.5-10,18.3
			c-3.3,3.8-9.2,8.2-20.5,9.9c-2.9-14.1-5.7-28.2-8.6-42.3c-0.3-7.8-0.6-15.5-0.8-23.3c3.6-5.6,9-14.4,14.9-25.7
			c10.3-19.5,13.1-29.3,17.4-29.1c2.7,0.1,7.1,4.1,11.6,29.9c1.4,13,2.8,26,4.3,39c10,6.6,11.2,10.4,10.7,12.5
			C826.9,740.1,817,738.1,809,746.1z"/>
		<g id="XMLID_462_">
			<g>
				<g>
					<path class="st1" d="M814.2,681.5c-0.3,0-0.5-1.6-1.5-4.4c-0.9-2.8-2.8-6.5-5.7-11c-1.4-2.2-3-4.6-4.7-7.3
						c-0.9-1.3-1.6-2.8-2.4-4.3c-0.4-0.7-0.8-1.5-1.2-2.3c-0.4-0.8-0.7-1.6-1.1-2.4c-3-6.5-5.4-14-7-22.1c-1.6-8.1-2.2-15.9-2.4-23
						c-0.2-7.1,0-13.4,0.3-18.8c0.6-10.7,1.4-17.2,1.9-17.2c0.5,0,0.5,6.6,0.4,17.2c0,5.3,0.1,11.6,0.4,18.6
						c0.4,7,1.1,14.6,2.6,22.5c1.5,7.9,3.7,15.2,6.5,21.5c0.3,0.8,0.7,1.6,1,2.3c0.4,0.8,0.8,1.5,1.1,2.2c0.7,1.5,1.4,2.9,2.2,4.2
						c1.5,2.7,3.1,5.2,4.4,7.5c2.7,4.7,4.3,8.8,4.9,11.8C814.6,679.7,814.4,681.4,814.2,681.5z"/>
				</g>
			</g>
		</g>
		<g id="XMLID_471_">
			<g>
				<g>
					<path class="st1" d="M876.4,726.8c0,0.2-1.5,0.7-4.4,1.4c-2.9,0.7-7,1.5-12.3,2.3c-5.2,0.7-11.5,1.4-18.6,1.2
						c-3.5-0.1-7.2-0.5-11-1.2c-0.9-0.2-1.9-0.4-2.9-0.6c-1-0.3-1.9-0.5-2.9-0.8c-1.9-0.6-4-1.3-5.9-2.7c-0.9-0.7-1.8-1.5-2.5-2.5
						c-0.7-1-1.1-2.1-1.4-3.1c-0.6-2.1-0.8-4-1.1-5.9c-0.5-3.8-0.7-7.5-0.8-11c-0.2-7-0.2-13.2-0.7-18.3
						c-0.8-10.4-3.8-16.2-3.3-16.4c0.1,0,0.4,0.3,0.8,0.9c0.4,0.7,1,1.7,1.6,3c1.2,2.7,2.5,6.9,3.2,12.2c0.8,5.3,1,11.6,1.4,18.4
						c0.2,3.4,0.4,7,1,10.7c0.3,1.8,0.6,3.7,1.1,5.4c0.5,1.7,1.3,2.9,2.7,3.9c1.4,1,3.1,1.7,4.9,2.2c0.9,0.3,1.8,0.5,2.7,0.7
						c0.9,0.2,1.8,0.4,2.7,0.6c3.6,0.7,7.1,1.1,10.5,1.3c6.8,0.4,13,0,18.2-0.5c5.2-0.5,9.4-1,12.3-1.2
						C874.7,726.6,876.4,726.6,876.4,726.8z"/>
				</g>
			</g>
		</g>
		<g id="XMLID_480_">
			<g>
				<g>
					<path class="st1" d="M751.8,613.6c-0.9-0.3,3.2-15.7,9.1-34.4c5.9-18.7,11.3-33.7,12.2-33.4c0.9,0.3-3.2,15.7-9.1,34.4
						C758.2,599,752.7,613.9,751.8,613.6z"/>
				</g>
			</g>
		</g>
		<g id="XMLID_488_">
			<g>
				<g>
					<path class="st1" d="M795.4,635.4c-0.3,0.3-2.4-1.4-5.8-3.9c-3.4-2.5-8.2-5.7-14-8.4c-2.9-1.3-5.7-2.4-8.4-3.4
						c-2.7-1-5.1-1.9-7.1-2.8c-4-1.8-6.1-3.6-5.9-4c0.2-0.4,2.7,0.6,6.7,1.8c2,0.6,4.5,1.3,7.2,2.1c2.7,0.8,5.8,1.8,8.8,3.3
						c6.1,2.8,11,6.6,14.1,9.6C794.2,632.8,795.7,635.1,795.4,635.4z"/>
				</g>
			</g>
		</g>
		<g id="XMLID_496_">
			<g>
				<g>
					<path class="st1" d="M738.7,660.5c-0.8-0.4,3.7-10.8,7.9-24c4.2-13.2,6.5-24.2,7.5-24.1c0.8,0.1,0,11.6-4.4,25.1
						C745.4,651,739.4,660.9,738.7,660.5z"/>
				</g>
			</g>
		</g>
		<g id="XMLID_504_">
			<g>
				<g>
					<path class="st1" d="M587.4,805.8c-0.2,0.1-1.2-2.2-2.8-6.4c-1.6-4.2-3.8-10.3-6.4-17.9c-5.2-15.2-12.1-36.3-19.3-59.8
						c-7.2-23.5-13.3-44.8-17.5-60.3c-2.1-7.8-3.7-14.1-4.8-18.4c-1-4.4-1.5-6.8-1.3-6.9c0.2-0.1,1.1,2.3,2.5,6.5
						c1.4,4.3,3.4,10.5,5.8,18.1c4.7,15.4,11.2,36.6,18.4,60c7.2,23.4,13.7,44.7,18.3,60c2.3,7.7,4.2,13.9,5.4,18.3
						C587.1,803.3,587.6,805.7,587.4,805.8z"/>
				</g>
			</g>
		</g>
		<g id="XMLID_513_">
			<g>
				<g>
					<path class="st1" d="M759.1,665.8c0,0.2-3.2-0.1-8.8-0.9c-5.7-0.8-13.8-1.9-23.9-3.4c-20.2-2.9-48.1-7-78.9-11
						c-30.9-4-58.9-7.4-79.1-9.7c-10.1-1.2-18.3-2.2-24-2.9c-5.7-0.7-8.8-1.2-8.8-1.5c0-0.2,3.2-0.1,8.9,0.2
						c5.7,0.3,13.9,1,24.1,1.9c20.3,1.8,48.4,4.7,79.3,8.8c30.9,4.1,58.8,8.5,78.9,12c10.1,1.8,18.2,3.3,23.8,4.4
						C756,664.8,759.1,665.6,759.1,665.8z"/>
				</g>
			</g>
		</g>
		<g id="XMLID_521_">
			<g>
				<g>
					<path class="st1" d="M795.2,843.7c-0.2,0.1-1-2.3-2.3-6.7c-1.3-4.4-3.1-10.8-5.1-18.7c-4.1-15.8-9.3-37.9-14.3-62.3
						c-5-24.5-8.8-46.8-11.3-63c-1.2-8.1-2.1-14.7-2.6-19.2c-0.5-4.5-0.7-7.1-0.5-7.1s0.8,2.4,1.7,6.9c0.9,4.5,2.1,11,3.6,19
						c3,16.1,7.2,38.3,12.2,62.7c5,24.4,9.8,46.5,13.4,62.4c1.8,8,3.2,14.4,4.1,18.9C795,841.1,795.4,843.6,795.2,843.7z"/>
				</g>
			</g>
		</g>
		<g id="XMLID_529_">
			<g>
				<g>
					<path class="st1" d="M791.6,847.3c0,0.2-2.9,0.4-8.1,0.5c-1.3,0-2.8,0-4.4,0.1c-1.6,0-3.3-0.1-5.2-0.1c-3.7-0.1-8-0.2-12.6-0.6
						c-2.3-0.2-4.8-0.3-7.3-0.5c-2.6-0.2-5.2-0.5-7.9-0.8c-5.5-0.5-11.3-1.3-17.5-2.2c-12.3-1.8-25.7-4.3-39.7-7.4
						c-27.9-6.3-52.8-13.7-70.6-19.2c-8.9-2.8-16.1-5.1-21.1-6.8c-5-1.7-7.7-2.7-7.6-3c0.1-0.2,2.9,0.4,8,1.7
						c5.1,1.3,12.4,3.3,21.4,5.8c18,5,42.9,12,70.7,18.2c13.9,3.1,27.2,5.6,39.4,7.6c6.1,0.9,11.9,1.8,17.3,2.4
						c2.7,0.3,5.3,0.7,7.9,1c2.5,0.2,5,0.5,7.3,0.7c4.6,0.5,8.9,0.7,12.6,1c1.8,0.1,3.6,0.3,5.2,0.4c1.6,0.1,3,0.1,4.3,0.2
						C788.8,846.8,791.6,847.1,791.6,847.3z"/>
				</g>
			</g>
		</g>
		<g id="XMLID_537_">
			<g>
				<g>
					<path class="st1" d="M667.1,762c-0.1-0.3,1.6-0.6,3.9-2c2.3-1.4,5.4-4.4,7-8.9c0.4-1.1,0.7-2.4,0.9-3.7c0.1-1.3,0.2-2.7,0-4.1
						c-0.3-2.8-1.2-5.8-2.7-8.7c-1.5-2.9-3.6-5.6-6.2-8c-1.3-1.2-2.7-2.2-4.2-2.8c-1.5-0.6-3.1-0.7-4.8-0.3c-1.7,0.4-3.6,1-5.3,1.6
						c-1.7,0.7-3.3,1.5-4.7,2.4c-1.4,0.9-2.7,2.1-3.6,3.3c-1,1.3-1.7,2.7-2.2,4.2c-0.9,3-1,6.1-0.5,8.9c0.4,2.9,1.3,5.5,2.3,7.7
						c2,4.6,4.8,7.6,7.1,9.1c2.3,1.5,4,1.7,3.9,1.9c0,0.2-1.7,0.5-4.5-0.8c-1.4-0.7-2.9-1.7-4.4-3.3c-1.5-1.6-2.9-3.5-4.1-5.9
						c-1.2-2.4-2.3-5.2-2.8-8.3c-0.6-3.1-0.7-6.7,0.3-10.3c0.5-1.8,1.4-3.6,2.5-5.2c1.2-1.6,2.7-3,4.3-4.1c1.7-1.1,3.5-2,5.3-2.8
						c1.9-0.7,3.7-1.4,5.8-1.8c1.1-0.2,2.2-0.3,3.3-0.3c1.2,0.1,2.3,0.3,3.3,0.7c2.1,0.8,3.7,2.1,5.2,3.4c2.9,2.7,5.1,5.7,6.7,8.9
						c1.6,3.2,2.5,6.6,2.7,9.8c0.1,1.6,0,3.2-0.3,4.7c-0.3,1.5-0.7,2.9-1.2,4.1c-2.2,5.1-5.8,8-8.6,9.2
						C668.9,762.4,667.1,762.2,667.1,762z"/>
				</g>
			</g>
		</g>
		<g id="XMLID_545_">
			<g>
				<g>
					<path class="st1" d="M875.6,797.4c0.3,0.3-3.8,4-10.8,9.3c-7,5.3-17,12.3-28.6,19.2c-11.5,6.9-22.4,12.4-30.4,16.1
						c-8,3.7-13.2,5.5-13.3,5.1c-0.2-0.4,4.6-3,12.3-7.2c7.7-4.2,18.3-10,29.8-16.8c11.5-6.9,21.6-13.5,28.9-18.3
						C870.7,800,875.3,797,875.6,797.4z"/>
				</g>
			</g>
		</g>
		<g id="XMLID_553_">
			<g>
				<g>
					<path class="st1" d="M878.7,797c0.3,0.4-4,3.9-11.3,9.2c-7.3,5.3-17.5,12.2-29.2,19.3c-11.7,7.1-22.6,13-30.6,17
						c-8,4-13.1,6.1-13.3,5.8c-0.2-0.4,4.5-3.3,12.3-7.8c7.7-4.5,18.4-10.7,30-17.8c11.6-7.1,22.1-13.6,29.6-18.4
						C873.7,799.5,878.4,796.7,878.7,797z"/>
				</g>
			</g>
		</g>
		<g id="XMLID_561_">
			<g>
				<g>
					<path class="st1" d="M877.3,796.6c0,0.9-5,1.6-11.2,1c-6.2-0.6-11-2.2-10.8-3.1c0.2-0.9,5.1-0.7,11.1-0.1
						C872.4,794.9,877.3,795.6,877.3,796.6z"/>
				</g>
			</g>
		</g>
		<g id="XMLID_570_">
			<g>
				<g>
					<path class="st1" d="M768.5,707.1c-0.3-0.4,2.8-2.8,6.3-7.9c3.5-5,7.2-12.9,11.2-21.6c8-17.4,13-32.2,13.9-31.9
						c0.8,0.2-2.8,15.6-10.9,33.2c-2,4.4-4.1,8.5-6.1,12.2c-2,3.7-4.2,6.9-6.2,9.4c-2.1,2.5-4.1,4.2-5.6,5.3
						C769.6,706.9,768.6,707.3,768.5,707.1z"/>
				</g>
			</g>
		</g>
		<g id="XMLID_578_">
			<g>
				<g>
					<path class="st1" d="M830.9,742.7c-0.9-0.1-1.3-3.3-2-7.1c-0.7-3.8-1.4-7-0.6-7.4c0.4-0.2,1.1,0.4,1.9,1.6
						c0.8,1.2,1.5,3.1,1.9,5.2c0.4,2.1,0.3,4.1,0,5.5C831.9,741.9,831.4,742.7,830.9,742.7z"/>
				</g>
			</g>
		</g>
		<g id="XMLID_586_">
			<g>
				<g>
					<path class="st1" d="M965.1,704.5c-0.1-0.2,0.7-0.7,2.2-1.4c1.4-0.7,3.6-1.7,6.1-3c2.5-1.3,5.4-3.1,7.8-5.7
						c1.2-1.3,2.3-2.8,3.1-4.5c0.9-1.7,1.5-3.7,2-5.7c0.9-4.1,1.3-8.3,1.3-12c0-3.7-0.5-7-1.1-9.8c-0.3-1.4-0.6-2.7-0.7-4
						c-0.1-1.2-0.1-2.3,0-3.1c0.3-1.7,0.9-2.5,1.1-2.4c0.2,0.1,0,1,0.2,2.5c0.1,1.5,0.7,3.7,1.6,6.4c0.5,1.4,0.9,3,1.3,4.7
						c0.3,1.7,0.6,3.6,0.6,5.6c0.1,4-0.2,8.3-1.2,12.8c-0.5,2.3-1.2,4.4-2.3,6.4c-1,2-2.4,3.8-3.8,5.2c-3,2.9-6.2,4.5-9,5.7
						c-2.8,1.1-5,1.8-6.6,2.1C966.1,704.7,965.2,704.7,965.1,704.5z"/>
				</g>
			</g>
		</g>
		<g id="XMLID_594_">
			<g>
				<g>
					<path class="st1" d="M986.8,721.6c-0.9,0.2-2.7-5.8-3.9-13.3c-1.2-7.5-1.2-13.7-0.3-13.8c0.9-0.1,2.4,5.9,3.5,13.3
						C987.3,715.3,987.7,721.4,986.8,721.6z"/>
				</g>
			</g>
		</g>
		<g id="XMLID_602_">
			<g>
				<g>
					<path class="st1" d="M965.8,860.9c-0.2-0.2,1.6-2.4,5-6.3c1.6-2,3.4-4.6,5.7-7.4c1-1.5,2.1-3.1,3.2-4.9
						c0.6-0.9,1.2-1.7,1.7-2.7c0.5-0.9,1.1-1.9,1.6-2.9c4.6-7.9,9.2-17.8,12.5-29.4c3.3-11.6,5.4-24.8,5.2-38.7c0-0.9,0-1.7,0-2.6
						c0-0.9-0.1-1.7-0.2-2.6c-0.1-1.7-0.2-3.4-0.4-5.1c-0.1-1.7-0.4-3.3-0.6-5c-0.2-1.6-0.5-3.3-0.7-4.9c-0.3-1.6-0.7-3.2-1-4.8
						c-0.2-0.8-0.3-1.6-0.5-2.3c-0.2-0.8-0.3-1.6-0.6-2.3c-0.4-1.5-0.9-3-1.3-4.5c-0.4-1.5-0.8-3-1.3-4.3c-1-2.6-2.5-5.1-4.5-6.3
						c-1-0.5-2.1-0.7-3.1-0.4c-1.1,0.2-2.2,0.9-3.3,1.6c-4.6,3-9.1,5.5-13.2,7.5c-8.4,4.1-15.6,6.4-20.6,7.7c-5,1.3-7.9,1.7-7.9,1.5
						c-0.1-0.2,2.7-1,7.5-2.7c4.8-1.7,11.8-4.3,19.9-8.5c4-2.1,8.3-4.7,12.8-7.7c1.2-0.8,2.5-1.6,4.1-2c1.7-0.4,3.6-0.2,5.1,0.6
						c1.5,0.8,2.8,2.1,3.7,3.4c0.9,1.3,1.7,2.8,2.3,4.3c0.6,1.5,1,3,1.5,4.5c0.5,1.5,0.9,3,1.4,4.6c0.3,0.8,0.4,1.6,0.6,2.4
						c0.2,0.8,0.4,1.6,0.5,2.4c0.4,1.6,0.7,3.2,1.1,4.9c0.2,1.7,0.5,3.3,0.7,5c0.2,1.7,0.6,3.4,0.6,5.1c0.1,1.7,0.3,3.5,0.4,5.2
						c0,0.9,0.2,1.8,0.2,2.6c0,0.9,0,1.8,0,2.7c0.2,14.3-2,27.8-5.6,39.6c-3.6,11.8-8.5,21.9-13.4,29.8c-0.6,1-1.2,2-1.8,2.9
						c-0.6,0.9-1.3,1.8-1.9,2.6c-1.2,1.7-2.4,3.3-3.5,4.8c-2.4,2.8-4.4,5.3-6.2,7.2C968,859.1,965.9,861,965.8,860.9z"/>
				</g>
			</g>
		</g>
		<g id="XMLID_610_">
			<g>
				<g>
					<path class="st1" d="M1007.9,955.5c0,0.1-1.1,0.5-3.4,1.1c-2.2,0.6-5.5,1.4-9.8,2.4c-8.5,2-20.9,4.6-36.3,6.9
						c-15.4,2.3-34,4.4-54.8,4.4c-20.7,0-43.6-2.1-66.8-8.3c-11.6-3.1-22.6-7.1-32.9-11.8c-10.3-4.7-19.8-10.2-28.2-16.3
						c-8.5-6.1-15.9-12.7-22-19.7c-6.1-7-11.1-14.1-14.7-21.2c-1.8-3.5-3.3-6.9-4.6-10.3c-1.3-3.3-2.2-6.5-3-9.6
						c-1.5-6.1-2.1-11.5-2.3-15.8c-0.1-2.2-0.1-4.2,0-5.8c0.1-1.7,0.2-3.1,0.3-4.3c0.3-2.3,0.5-3.5,0.6-3.5c0.3,0-0.4,4.8,0.3,13.5
						c0.4,4.3,1.2,9.6,2.8,15.5c0.8,2.9,1.8,6.1,3.2,9.3c1.3,3.2,2.8,6.6,4.7,9.9c3.6,6.8,8.6,13.7,14.6,20.5
						c6.1,6.7,13.4,13.2,21.8,19c8.3,5.9,17.7,11.2,27.8,15.8c10.1,4.6,21,8.6,32.4,11.6c22.8,6.1,45.5,8.3,66,8.4
						c20.5,0.1,39-1.7,54.4-3.7c15.4-2.1,27.8-4.3,36.4-5.9c4.3-0.8,7.6-1.4,9.9-1.8C1006.7,955.6,1007.9,955.4,1007.9,955.5z"/>
				</g>
			</g>
		</g>
		<g id="XMLID_618_">
			<g>
				<g>
					<path class="st1" d="M903.6,866.4c-0.5,0.8-6.5-2.7-14.4-5.6c-7.9-3-14.7-4.3-14.5-5.3c0.1-0.4,1.9-0.7,4.7-0.4
						c2.9,0.3,6.8,1.1,11,2.6c4.1,1.6,7.6,3.5,10,5.2C902.6,864.7,903.9,866,903.6,866.4z"/>
				</g>
			</g>
		</g>
		<g id="XMLID_626_">
			<g>
				<g>
					<path class="st1" d="M1011.3,854.8c0.1,0.4-7.1,2.4-18.8,4.7c-5.9,1.2-12.9,2.4-20.7,3.6c-7.8,1.2-16.5,2.3-25.6,3.2
						c-9.1,0.9-17.8,1.5-25.7,1.9c-7.9,0.4-15.1,0.6-21.1,0.6c-12,0-19.4-0.4-19.4-0.9c0-0.5,7.4-0.8,19.3-1.4
						c6-0.3,13.1-0.7,20.9-1.3c7.9-0.6,16.5-1.3,25.6-2.2c9.1-0.9,17.7-1.9,25.5-3c7.8-1,14.9-2,20.8-2.9
						C1003.9,855.5,1011.2,854.3,1011.3,854.8z"/>
				</g>
			</g>
		</g>
		<g id="XMLID_634_">
			<g>
				<g>
					<path class="st1" d="M1008.7,957.3c-0.4-0.3,3.2-5.3,7.2-14.2c2-4.5,4-9.9,5.6-16.2c1.5-6.3,2.5-13.3,2.6-20.7
						c0-7.4-0.8-14.5-2.3-20.8c-1.4-6.3-3.4-11.8-5.3-16.3c-3.9-9-7.4-14.1-7-14.4c0.2-0.1,1.3,1,2.9,3.2c1.7,2.2,3.9,5.7,6.1,10.2
						c2.3,4.5,4.5,10.1,6.1,16.6c1.7,6.5,2.7,13.8,2.6,21.5c-0.1,7.7-1.2,15-3,21.5c-1.8,6.4-4.1,12-6.4,16.5
						c-2.3,4.5-4.6,7.8-6.3,10.1C1010,956.3,1008.9,957.4,1008.7,957.3z"/>
				</g>
			</g>
		</g>
		<g id="XMLID_642_">
			<g>
				<g>
					<path class="st1" d="M912,1001.6c0,0.1-1.3,0.3-3.7,0.5c-2.4,0.2-6.1,0.4-10.7,0.5c-2.3,0-4.9,0-7.8,0
						c-2.8-0.1-5.9-0.1-9.2-0.4c-6.6-0.4-14.2-1.1-22.4-2.2c-16.6-2.2-36.1-6.2-57.4-11.5c-10.7-2.6-21.9-5.6-33.4-9
						c-11.5-3.4-23.3-7.4-35.1-12.3c-11.8-4.8-23-10.4-33.4-16.6c-10.3-6.3-19.8-13.2-27.8-20.9c-8.1-7.7-14.7-16.1-19.5-24.8
						c-0.6-1.1-1.2-2.2-1.7-3.3c-0.5-1.1-1-2.2-1.5-3.3c-0.9-2.2-1.8-4.4-2.5-6.6c-1.4-4.4-2.4-8.7-2.9-12.9
						c-1.2-8.4-0.5-16.1,0.8-22.7c1.4-6.6,3.7-12,6-16c0.3-0.5,0.6-1,0.8-1.5c0.3-0.5,0.6-0.9,0.9-1.3c0.6-0.9,1.1-1.7,1.7-2.4
						c1.2-1.4,2.1-2.6,3-3.5c1.8-1.7,2.7-2.6,2.8-2.5c0.1,0.1-0.7,1.1-2.3,2.9c-0.8,0.9-1.6,2.2-2.7,3.6c-0.5,0.7-1,1.6-1.5,2.4
						c-0.3,0.4-0.5,0.9-0.8,1.3c-0.2,0.5-0.5,1-0.8,1.5c-2.1,4.1-4.2,9.4-5.4,15.8c-1.2,6.4-1.6,13.9-0.3,22c0.6,4.1,1.6,8.2,3,12.4
						c0.7,2.1,1.6,4.2,2.5,6.3c0.5,1,1,2.1,1.5,3.2c0.5,1.1,1.1,2.1,1.7,3.2c4.7,8.4,11.2,16.6,19.2,24c7.9,7.5,17.2,14.2,27.4,20.4
						c10.2,6.1,21.3,11.6,33,16.4c11.7,4.8,23.4,8.8,34.8,12.2c11.4,3.5,22.6,6.4,33.2,9.1c21.3,5.5,40.6,9.7,57,12.2
						c8.2,1.3,15.7,2.1,22.2,2.7c3.3,0.3,6.3,0.5,9.2,0.7c2.8,0.2,5.4,0.2,7.7,0.3c4.6,0.1,8.3,0.1,10.7,0.1
						C910.7,1001.4,912,1001.5,912,1001.6z"/>
				</g>
			</g>
		</g>
		<g id="XMLID_650_">
			<g>
				<g>
					<path class="st1" d="M923.2,970.2c0.4,0.1,0.6,2,0.2,5c-0.3,3-1.3,7.2-2.9,11.6c-1.6,4.4-3.6,8.2-5.3,10.7
						c-1.7,2.6-3,3.9-3.4,3.7c-0.8-0.5,2.6-7.1,5.6-15.6C920.6,977.3,922.2,970.1,923.2,970.2z"/>
				</g>
			</g>
		</g>
		<g id="XMLID_658_">
			<g>
				<g>
					<path class="st1" d="M1047,875.8c0.1,0.9-5.1,2.5-11.7,2.8c-6.7,0.4-12-0.7-12-1.5c0-0.9,5.3-1.4,11.8-1.7
						C1041.6,875,1046.9,874.9,1047,875.8z"/>
				</g>
			</g>
		</g>
		<g id="XMLID_666_">
			<g>
				<g>
					<path class="st1" d="M1149,932.2c-0.3,0.3-6-5.1-15.2-13.8c-9.2-8.7-21.9-20.7-36.4-33.4c-7.2-6.4-14.2-12.4-20.6-17.8
						c-3.2-2.7-6.2-5.3-9.3-6.4c-3.1-1.2-6.3-0.5-8.6,1.3c-1.2,0.9-2.1,1.9-3,3c-0.9,1.1-1.7,2.1-2.4,3.1c-1.5,2-2.8,3.8-4.1,5.1
						c-2.5,2.7-4.6,3.3-4.6,3.2c-0.2-0.3,1.6-1.2,3.7-4c1.1-1.4,2.2-3.2,3.6-5.3c0.7-1.1,1.4-2.2,2.3-3.4c0.9-1.2,1.9-2.4,3.2-3.5
						c1.3-1.1,3-2.1,4.9-2.4c1.9-0.4,4-0.2,6,0.4c3.9,1.3,7.1,4.1,10.4,6.7c6.5,5.3,13.6,11.2,20.9,17.6
						c14.6,12.8,27.1,25.1,35.9,34.3C1144.2,925.9,1149.3,931.9,1149,932.2z"/>
				</g>
			</g>
		</g>
		<g id="XMLID_674_">
			<g>
				<g>
					<path class="st1" d="M1055,909c0.2,0.9-6.1,2.7-13.9,4.1c-7.8,1.4-14.3,1.8-14.4,0.9c-0.2-0.9,6.1-2.7,13.9-4.1
						C1048.4,908.6,1054.8,908.2,1055,909z"/>
				</g>
			</g>
		</g>
		<g id="XMLID_682_">
			<g>
				<g>
					<path class="st1" d="M1148.2,933.5c0,0,0.1,0,0.3,0.2c0.1,0.2,0.3,0.4,0.5,0.8c0.3,0.7,0.6,1.9,0.2,3.4
						c-0.3,1.5-1.3,3.2-2.9,4.6c-0.8,0.7-1.8,1.3-3.1,1.7c-1.2,0.4-2.5,0.6-3.8,0.6c-2.7,0-5.5-0.8-8.3-1.7c-2.8-1-5.7-2.1-8.8-3.2
						c-6.2-2.3-12.9-4.9-20-7.8c-14.1-5.7-26.8-11.2-35.8-15.4c-9.1-4.2-14.5-7.1-14.3-7.5c0.2-0.4,6,1.7,15.3,5.3
						c9.3,3.6,22,8.8,36.1,14.5c7,2.8,13.8,5.5,19.9,8c3,1.2,5.9,2.4,8.6,3.5c2.7,1.1,5.2,1.8,7.5,2c1.1,0.1,2.2,0,3.2-0.3
						c0.9-0.2,1.8-0.7,2.5-1.2c1.4-1,2.4-2.4,2.8-3.6c0.5-1.2,0.5-2.2,0.4-2.9C1148.2,933.9,1148.1,933.5,1148.2,933.5z"/>
				</g>
			</g>
		</g>
		<g id="XMLID_690_">
			<g>
				<g>
					<path class="st1" d="M953.9,988.7c-0.1,0-0.2-0.2-0.3-0.3c-0.1-0.1-0.3-0.1-0.7-0.2c-0.2,0-0.4,0-0.6,0c-0.3,0-0.5,0-0.9,0
						c-0.6,0-1.3-0.1-2.1-0.1c-3.1-0.2-7.4-0.7-12.1-1.1c-9.4-0.9-17.1-1.4-17.1-2.4c0-0.9,7.8-1.8,17.4-0.9
						c4.8,0.4,9.1,1.2,12.2,2.1c0.8,0.2,1.5,0.4,2.1,0.6c0.3,0.1,0.6,0.2,0.8,0.3c0.3,0.1,0.6,0.3,0.8,0.4c0.5,0.3,0.8,0.8,0.7,1.2
						C954.2,988.6,954,988.7,953.9,988.7z"/>
				</g>
			</g>
		</g>
		<g id="XMLID_698_">
			<g>
				<g>
					<path class="st1" d="M985.3,962.4c0.2-0.1,1.7,1.7,4.2,5.3c2.5,3.5,5.9,8.8,9.7,15.6c3.8,6.8,7.9,15.1,11.7,24.7
						c1.9,4.8,3.7,9.9,5.3,15.2c0.8,2.7,1.7,5.5,1.9,8.6c0.1,1.6,0,3.2-0.4,4.8c-0.4,1.7-1.3,3.2-2.5,4.5c-1.1,1.3-2.6,2.3-4.2,2.9
						c-1.6,0.6-3.5,0.8-5.2,0.3c-1.7-0.4-3.2-1.3-4.4-2.3c-1.2-1-2.2-2-3.2-3c-3.9-4-7.7-7.8-11.2-11.5c-7.1-7.4-13.3-14.2-18.4-20
						c-5.1-5.8-9.2-10.6-11.9-14c-2.7-3.4-4.1-5.3-4-5.5c0.2-0.2,1.9,1.5,4.9,4.6c3,3.1,7.3,7.7,12.6,13.2
						c5.3,5.6,11.7,12.2,18.8,19.5c3.6,3.6,7.4,7.4,11.3,11.3c2,2,3.9,3.9,6.1,4.4c2.1,0.5,4.6-0.4,6.3-2.3c0.8-0.9,1.5-2,1.8-3.1
						c0.3-1.2,0.4-2.5,0.3-3.8c-0.2-2.6-0.9-5.2-1.8-7.9c-1.6-5.3-3.3-10.3-5.1-15.1c-3.6-9.5-7.4-17.8-10.9-24.7
						c-3.5-6.9-6.6-12.3-8.7-16C986.3,964.6,985.1,962.6,985.3,962.4z"/>
				</g>
			</g>
		</g>
		<g id="XMLID_970_">
			<g>
				<g>
					<path class="st1" d="M800.9,765.1c0.4,0.8-4.1,4.1-10.1,7.4c-6,3.3-11.2,5.3-11.6,4.5c-0.4-0.8,4.1-4.1,10.1-7.4
						C795.3,766.3,800.5,764.3,800.9,765.1z"/>
				</g>
			</g>
		</g>
	</g>
	<g id="hand_left">
		<path class="st0" d="M910.4,602.9c-3.4-8.9-6.6-19.9-8.4-32.7c-3.9-27.5,0.6-50.4,4.8-64.8c9.6,3.4,24.9,10.2,39.9,23.7
			c3.4,3,19.4,17.8,30.5,43.2c15,34.3,11.5,66.1,8.7,80.7c-4.4,23.3-13.6,39.1-20.9,51.6c-7.6,13.1-24,40.5-57.1,62.1
			c-18.8,12.3-36.9,18.7-50.9,22.3c-3.6,5.9-9.3,14.2-17.9,22.7c-6,5.9-9.7,9.4-15.3,11.6c-12.9,4.8-26.1-1.5-31.3-4.3
			c-1-12.1-2.1-24.3-3.1-36.4c2-3.5,4.7-7.8,8.4-12.1c3.9-4.6,7.8-8,11.1-10.5c-4-2.2-4.8-4.5-5-5.5c-0.9-5.5,7.7-11.4,14.3-13.2
			c12.6-3.5,24.1,6.2,25.8,7.6c15.5-5.6,26-13.3,32.2-18.7c14.1-12.3,21.2-25.7,28.1-38.6c5.6-10.5,9.7-18.3,12.3-28.7
			C918.9,653.7,922.6,631.9,910.4,602.9z"/>
		<g id="XMLID_295_">
			<g>
				<g>
					<path class="st1" d="M980.2,672.6c-0.1,0,0.1-0.7,0.5-2c0.4-1.3,1-3.2,1.7-5.6c1.4-4.9,2.9-12.1,3.3-21.2
						c0.5-9.1,0-19.9-1.3-31.9c-0.6-6-1.3-12.3-2.6-18.6c-0.4-1.6-0.8-3.2-1.1-4.8c-0.2-0.8-0.4-1.6-0.6-2.4
						c-0.2-0.8-0.5-1.6-0.7-2.4c-0.5-1.6-1-3.2-1.5-4.8c-0.6-1.6-1.2-3.2-1.8-4.8c-0.3-0.8-0.6-1.6-0.9-2.4
						c-0.4-0.8-0.7-1.6-1.1-2.3c-0.7-1.5-1.4-3.1-2.1-4.6c-0.8-1.5-1.6-2.9-2.4-4.4c-0.4-0.7-0.8-1.4-1.2-2.2
						c-0.4-0.7-0.9-1.4-1.3-2.1c-0.9-1.4-1.7-2.7-2.6-4.1c-0.9-1.3-1.8-2.6-2.8-3.9c-1.7-2.6-3.8-4.9-5.7-7.2
						c-0.9-1.2-2-2.2-2.9-3.3c-1-1.1-2-2.1-2.9-3.2c-2.1-1.9-4-3.9-6-5.7c-1-0.9-2-1.7-3-2.5c-1-0.8-1.9-1.7-2.9-2.4
						c-2-1.5-3.9-2.9-5.7-4.2c-7.4-5.2-14.1-8.4-18.6-10.7c-4.7-2-7.3-3.2-7.2-3.4c0.1-0.2,2.8,0.6,7.7,2.3c4.8,2,11.7,4.9,19.4,10
						c1.9,1.3,3.9,2.7,5.9,4.2c1.1,0.7,2,1.6,3,2.4c1,0.8,2.1,1.7,3.1,2.5c2.1,1.8,4.1,3.7,6.2,5.7c1,1.1,2,2.1,3,3.2
						c1,1.1,2.1,2.1,3.1,3.3c1.9,2.4,4.1,4.7,5.9,7.3c0.9,1.3,1.9,2.6,2.9,3.9c0.9,1.4,1.8,2.8,2.7,4.2c0.4,0.7,0.9,1.4,1.3,2.1
						c0.4,0.7,0.8,1.5,1.2,2.2c0.8,1.5,1.6,3,2.5,4.5c0.7,1.6,1.5,3.1,2.2,4.7c0.4,0.8,0.7,1.6,1.1,2.4c0.3,0.8,0.6,1.6,1,2.5
						c0.6,1.7,1.3,3.3,1.9,4.9c0.5,1.7,1,3.3,1.5,5c0.2,0.8,0.5,1.6,0.7,2.5c0.2,0.8,0.4,1.7,0.6,2.5c0.4,1.7,0.8,3.3,1.1,4.9
						c1.3,6.6,1.9,12.9,2.5,19c1.1,12.1,1.4,23.1,0.6,32.3c-0.8,9.2-2.7,16.5-4.4,21.4c-0.9,2.4-1.7,4.3-2.3,5.5
						C980.7,672.1,980.3,672.7,980.2,672.6z"/>
				</g>
			</g>
		</g>
		<g id="XMLID_315_">
			<g>
				<g>
					<path class="st1" d="M912.4,673.5c-0.5-0.2,0.8-4.1,2.1-10.4c0.2-0.8,0.3-1.6,0.5-2.5c0.2-0.9,0.3-1.8,0.5-2.7
						c0.4-1.9,0.6-3.9,0.8-6c0.4-4.2,0.7-8.9,0.6-13.9c-0.2-4.9-0.7-9.6-1.3-13.8c-0.4-2.1-0.7-4.1-1.2-6c-0.2-0.9-0.4-1.8-0.6-2.7
						c-0.2-0.9-0.4-1.7-0.6-2.5c-1.7-6.3-3.2-10.1-2.7-10.3c0.4-0.2,2.6,3.3,4.9,9.6c0.3,0.8,0.6,1.6,0.9,2.5
						c0.3,0.9,0.5,1.8,0.8,2.7c0.6,1.9,1,3.9,1.5,6.1c0.8,4.3,1.5,9.2,1.6,14.3c0.1,5.1-0.2,10-0.8,14.3c-0.4,2.2-0.7,4.2-1.2,6.2
						c-0.2,1-0.4,1.9-0.7,2.8c-0.3,0.9-0.5,1.7-0.7,2.5C914.8,670.1,912.7,673.7,912.4,673.5z"/>
				</g>
			</g>
		</g>
		<g id="XMLID_316_">
			<g>
				<g>
					<path class="st1" d="M981.1,677c-0.3,0-0.2-1.2-1.5-2.4c-0.7-0.6-1.6-1.2-2.8-1.8c-1.3-0.5-2.8-1.1-4.4-1.6
						c-3.3-1-7.4-1.9-12-2.3c-4.6-0.4-9.7-0.3-15,0.4c-10.6,1.4-20,4.6-26.7,6.8c-6.8,2.2-11,3.6-11.2,3.1
						c-0.2-0.4,3.8-2.5,10.4-5.3c3.3-1.4,7.3-3,11.9-4.4c4.6-1.4,9.7-2.7,15.2-3.5c5.5-0.7,10.9-0.8,15.7-0.2
						c4.8,0.5,9.1,1.7,12.5,3.1c1.7,0.7,3.2,1.4,4.5,2.1c1.3,0.8,2.3,1.6,3,2.6c0.7,0.9,0.9,1.8,0.9,2.4
						C981.4,676.8,981.2,677,981.1,677z"/>
				</g>
			</g>
		</g>
		<g id="XMLID_317_">
			<g>
				<g>
					<path class="st1" d="M845.1,748.7c-0.2-0.5,4.6-3.1,12-8c0.9-0.6,1.9-1.3,2.9-1.9c1-0.7,2-1.5,3-2.2c2.1-1.5,4.3-3.3,6.6-5.1
						c4.5-3.7,9.3-8,14-12.8c4.7-4.9,8.8-9.8,12.3-14.4c1.7-2.4,3.4-4.6,4.8-6.7c0.7-1.1,1.5-2.1,2.1-3.1c0.6-1,1.3-2,1.8-2.9
						c4.7-7.5,7.1-12.5,7.6-12.3c0.3,0.1-1.4,5.5-5.6,13.4c-0.5,1-1.1,2-1.7,3.1c-0.6,1.1-1.3,2.1-2,3.3c-1.3,2.3-3,4.6-4.7,7.1
						c-3.5,4.8-7.6,9.9-12.4,14.9c-4.8,4.9-9.8,9.3-14.5,12.9c-2.4,1.8-4.7,3.5-6.9,4.9c-1.1,0.7-2.2,1.5-3.2,2.1
						c-1.1,0.6-2.1,1.2-3,1.8C850.5,747.1,845.2,749,845.1,748.7z"/>
				</g>
			</g>
		</g>
		<g id="XMLID_319_">
			<g>
				<g>
					<path class="st1" d="M858.2,790c-0.1-0.2,2.2-1.2,6.3-2.7c1-0.4,2.2-0.8,3.4-1.2c1.2-0.5,2.5-1.1,4-1.7
						c2.8-1.2,6.1-2.5,9.6-4.3c1.7-0.9,3.6-1.7,5.5-2.7c1.9-0.9,3.8-2.1,5.8-3.2c1-0.6,2-1.1,3-1.7c0.5-0.3,1-0.6,1.5-0.9
						c0.5-0.3,1-0.6,1.5-1c2.1-1.3,4.2-2.7,6.3-4c8.5-5.8,17.4-12.7,26-20.9c8.5-8.3,15.8-16.9,21.9-25.1c1.5-2.1,2.9-4.2,4.3-6.2
						c0.3-0.5,0.7-1,1-1.5c0.3-0.5,0.6-1,0.9-1.5c0.6-1,1.2-2,1.8-3c1.2-2,2.4-3.8,3.4-5.7c1-1.9,2-3.7,2.9-5.4
						c1.9-3.4,3.3-6.6,4.6-9.4c0.7-1.4,1.3-2.7,1.8-3.9c0.5-1.2,1-2.3,1.4-3.4c1.7-4,2.7-6.2,2.9-6.2c0.2,0.1-0.4,2.4-1.7,6.6
						c-0.3,1-0.7,2.2-1.1,3.5c-0.5,1.3-1,2.6-1.6,4c-1.2,2.9-2.4,6.2-4.3,9.7c-0.9,1.8-1.8,3.6-2.7,5.5c-1,1.9-2.2,3.8-3.3,5.8
						c-0.6,1-1.2,2-1.8,3.1c-0.3,0.5-0.6,1-0.9,1.6c-0.3,0.5-0.7,1-1,1.5c-1.4,2.1-2.8,4.2-4.2,6.3c-6.1,8.5-13.4,17.3-22.1,25.7
						c-8.7,8.3-17.9,15.3-26.6,21c-2.2,1.4-4.4,2.7-6.5,4c-0.5,0.3-1.1,0.6-1.6,1c-0.5,0.3-1.1,0.6-1.6,0.9
						c-1.1,0.6-2.1,1.1-3.1,1.7c-2.1,1.1-4,2.2-6,3.1c-2,0.9-3.9,1.7-5.7,2.5c-3.6,1.7-7,2.8-9.9,3.9c-1.5,0.5-2.8,1-4.1,1.4
						c-1.3,0.4-2.5,0.7-3.5,1C860.6,789.7,858.3,790.2,858.2,790z"/>
				</g>
			</g>
		</g>
		<g id="XMLID_320_">
			<g>
				<g>
					<path class="st1" d="M842.6,748.1c-0.4,0.3-2.3-1.4-5.8-3.3c-1.7-0.9-3.9-1.9-6.4-2.4c-2.5-0.5-5.3-0.7-8.1-0.1
						c-2.9,0.6-5.3,1.8-7.3,3.4c-2,1.6-3.7,3.4-5.2,4.8c-1.5,1.5-2.9,2.6-3.9,3.2c-1,0.6-1.7,0.8-1.8,0.6c-0.1-0.2,0.3-0.7,1-1.6
						c0.7-0.9,1.8-2.1,3-3.8c1.3-1.6,2.8-3.6,5-5.6c2.2-2,5.2-3.6,8.6-4.3c3.4-0.7,6.7-0.4,9.5,0.4c2.8,0.8,5.1,2.1,6.9,3.4
						C841.5,745.5,842.9,747.8,842.6,748.1z"/>
				</g>
			</g>
		</g>
		<g id="XMLID_366_">
			<g>
				<g>
					<path class="st1" d="M788.7,784.5c-0.4-0.1-0.1-2.6,1.6-6.4c1.6-3.7,4.7-8.6,9.3-12.8c2.3-2.1,4.8-3.9,7-5.2
						c2.2-1.4,4.2-2.5,5.7-3.6c3.1-2.1,4.4-4.2,4.8-4c0.2,0.1,0.1,0.8-0.4,1.8c-0.5,1.1-1.5,2.5-3,3.9c-1.5,1.4-3.5,2.9-5.6,4.4
						c-2.1,1.5-4.3,3.1-6.5,5.1c-4.3,3.9-7.4,8.2-9.5,11.5C790.2,782.4,789.1,784.6,788.7,784.5z"/>
				</g>
			</g>
		</g>
		<g id="XMLID_382_">
			<g>
				<g>
					<path class="st1" d="M837.1,814.2c0.3,0.2-1,2.8-4.5,5.7c-1.8,1.5-4.1,3-6.9,4.1c-1.4,0.6-2.9,1.1-4.5,1.5
						c-1.6,0.4-3.3,0.6-5.1,0.7c-3.5,0.2-6.9-0.3-9.8-1.1c-2.9-0.8-5.4-1.8-7.4-2.7c-4-1.8-6.4-3.3-6.2-3.7c0.2-0.4,2.8,0.3,7,1.6
						c4.1,1.2,9.9,3,16.2,2.7c1.6-0.1,3.1-0.3,4.6-0.6c1.5-0.3,2.9-0.7,4.2-1.2c2.6-0.9,4.8-2.1,6.6-3.2
						C834.8,815.9,836.7,813.9,837.1,814.2z"/>
				</g>
			</g>
		</g>
		<g id="XMLID_398_">
			<g>
				<g>
					<path class="st1" d="M857.1,789c0.2,0.1,0.3,0.6,0.1,1.6c-0.2,0.9-0.8,2.2-1.7,3.6c-1.8,2.7-4.5,6.1-7.7,9.8
						c-6.3,7.4-11.9,12.9-12.6,12.3c-0.7-0.6,3.8-7,10.1-14.4c3.1-3.7,6.2-6.9,8.3-9.1C855.9,790.5,856.6,788.9,857.1,789z"/>
				</g>
			</g>
		</g>
		<g id="XMLID_438_">
			<g>
				<g>
					<path class="st1" d="M821.2,774.2c0.1,0.2-0.3,0.6-1,1.2c-0.7,0.6-1.6,1.6-2.7,2.8c-0.6,0.6-1.2,1.3-2,2
						c-0.8,0.7-1.7,1.4-2.7,2c-2,1.3-4.4,2.2-6.9,3.1c-2.5,0.8-4.8,1.5-6.8,2.3c-2,0.8-3.7,1.6-5,2.5c-2.7,1.7-3.9,3.4-4.3,3.1
						c-0.2-0.1-0.1-0.7,0.3-1.6c0.4-0.9,1.3-2.1,2.6-3.4c1.3-1.2,3.2-2.4,5.3-3.4c2.1-1,4.5-1.8,6.9-2.6c2.4-0.8,4.6-1.6,6.5-2.6
						c1.9-0.9,3.3-2.1,4.7-3.2c1.4-1,2.6-1.8,3.6-2.2C820.5,774,821.1,774,821.2,774.2z"/>
				</g>
			</g>
		</g>
		<g id="XMLID_446_">
			<g>
				<g>
					<path class="st1" d="M824.3,789.2c0.2,0.1,0,0.7-0.5,1.6c-0.5,0.9-1.5,2-3,3.1c-1.5,1.1-3.4,2.1-5.6,2.9
						c-2.2,0.8-4.7,1.4-7.3,1.9c-2.6,0.5-5,1-7.1,1.5c-2.1,0.5-4,1.1-5.5,1.8c-3,1.3-4.6,2.7-5,2.3c-0.2-0.1,0-0.7,0.7-1.5
						c0.6-0.8,1.7-1.8,3.2-2.8c1.5-1,3.5-1.9,5.7-2.6c2.2-0.7,4.7-1.3,7.3-1.8c2.5-0.5,4.9-1,7-1.6c2.1-0.6,3.9-1.3,5.3-2
						C822.4,790.5,823.9,788.9,824.3,789.2z"/>
				</g>
			</g>
		</g>
		<g id="XMLID_454_">
			<g>
				<g>
					<path class="st1" d="M819.6,807.7c0.2,0.4-1.2,1.4-3.8,2.3c-1.3,0.4-2.9,0.8-4.6,1c-1.7,0.2-3.7,0.4-5.6,0.5
						c-4,0.1-7.4,0.2-10,0.3c-2.5,0.1-4.1,0.3-4.3-0.2c-0.1-0.4,1.3-1.4,3.9-2.1c2.6-0.8,6.3-1.2,10.2-1.3c1.9-0.1,3.8-0.1,5.5-0.2
						c1.7-0.1,3.2-0.2,4.4-0.3C817.9,807.5,819.4,807.3,819.6,807.7z"/>
				</g>
			</g>
		</g>
	</g>
	<g id="head">
		<path class="st0" d="M826.9,546.6c-10.8-7.1-6.4-24.4-14.2-26.8c-8.2-2.5-15,15.8-29.1,17.5c-11.8,1.4-20.8-11.2-32.9-22.5
			c-21.1-19.7-60.4-56.4-51.3-90.7c11.1-42.2,87-48.4,93.9-48.9c13.6-1,82.2-5.9,106.7,40.1c13.9,26.1,9.1,60.1-4,82.6
			c-1.9,3.3-7.9,8.8-15.9,19.7c-10.6,14.4-10.2,16.7-15.6,21.3C854.6,547.3,837,553.2,826.9,546.6z"/>
		<path id="XMLID_22_" d="M737.8,362.1c-6.3,5.7-10.7,10.8-19.4,21.2c-19,22.5-24.8,35.1-26.4,38.8c-4.5,10.2-7.7,17.6-6.5,27.6
			c0.4,3,1.9,14,11.2,22.9c5.7,5.5,11.8,7.8,15.3,8.8c0,4.5,0.5,11.1,2.4,18.8c2.2,8.9,5.5,22.6,17.6,33.5
			c3,2.8,15.2,13.4,33.5,13.5c4.1,0,17-0.1,28.8-9.4c8.8-6.9,12.6-15.4,14.1-19.4c-8.7,1.2-26.9,2.3-41.7-8.8
			c-4.1-3.1-8.4-7.4-17-22.3c-6.3-11-14.4-26.7-21.7-47c5.2-6.7,10.6-14.7,15.9-24.1c3.8-6.8,6.9-13.4,9.4-19.4
			c5,9.6,10.9,15.2,14.7,18.2c16.6,13.3,37.5,13.4,51.1,13.5c5.5,0,10-0.3,12.9-0.6c0.9-1.3,4.2-6,9.4-6.5c9-0.8,14.3,12,14.7,12.9
			c0.9,2.1,4.8,11.8-1.2,19.4c-5.1,6.6-13.6,6.5-14.7,6.5c0.2,5.4,1.1,14.3,5.3,24.1c3.5,8.1,8.2,19,18.8,23.5
			c9.5,4,18.6,0.9,28.2-2.4c5.3-1.8,21.5-7.6,32.3-24.1c1.6-2.5,5-7.7,7.1-15.3c4.7-17.2,0.4-38.2-13.5-52.9
			c-12.7-13.4-28.5-16.3-34.1-17c-3.3-2.4-8.2-6.6-12.3-12.9c-8.1-12.6-4.9-21-11.2-32.9c-7.3-13.9-21-19.9-24.1-21.2
			c-14.6-6-28-2.1-45.2,2.9C783.3,334.4,760.1,342,737.8,362.1z"/>
		<g id="XMLID_2_">
			<g>
				<g>
					<path class="st1" d="M826.4,535.2c-0.1,0-0.1-0.6-0.1-1.6c0-1-0.2-2.5-1-4.2c-0.8-1.7-2.2-3.5-4.4-5.1
						c-1.1-0.8-2.3-1.5-3.7-2.1c-1.4-0.6-2.9-1.1-4.5-1.3c-3.3-0.5-7.1-0.3-11.2,0.1c-4.1,0.3-8.6,0.9-13.5,0.2
						c-4.8-0.7-9.8-2.5-14.2-5.4c-2.2-1.4-4.3-3.1-6.3-4.8c-2-1.8-3.9-3.7-5.7-5.8c-3.6-4.1-6.7-8.5-9.5-12.7
						c-2.8-4.3-5.4-8.5-7.7-12.5c-4.7-8.1-8.6-15.6-11.7-21.9c-3.1-6.4-5.3-11.7-6.7-15.3c-1.4-3.7-2.1-5.8-1.9-5.9
						c0.5-0.2,4.1,7.7,10.7,20.2c3.3,6.2,7.4,13.5,12.2,21.4c2.4,4,5,8.1,7.8,12.3c2.8,4.2,5.8,8.4,9.3,12.4c1.7,2,3.6,3.8,5.4,5.6
						c1.9,1.7,3.8,3.3,5.9,4.6c4.1,2.7,8.5,4.4,12.9,5.1c4.4,0.7,8.7,0.3,12.9,0.1c4.1-0.3,8.2-0.4,11.8,0.3c1.9,0.3,3.5,1,5,1.7
						c1.5,0.7,2.8,1.6,3.9,2.6c2.3,1.9,3.7,4.1,4.4,6c0.7,2,0.7,3.7,0.5,4.7C826.8,534.8,826.5,535.3,826.4,535.2z"/>
				</g>
			</g>
		</g>
		<g id="XMLID_4_">
			<g>
				<g>
					<path class="st1" d="M882,512.5c0.3,0.1-0.5,5.2-4.5,12.6c-2,3.6-4.8,7.8-8.6,11.8c-3.8,4-8.8,7.8-14.6,10.5
						c-1.5,0.6-2.9,1.3-4.5,1.7c-0.8,0.2-1.5,0.5-2.2,0.7c-0.8,0.2-1.5,0.3-2.3,0.5c-3,0.7-6,0.8-8.8,0.6c-2.8-0.2-5.5-0.8-7.9-1.9
						c-1.2-0.5-2.2-1.1-3.2-1.9c-1-0.7-1.8-1.5-2.6-2.3c-2.9-3.3-3.9-6.9-3.9-9.3c0-2.4,0.7-3.6,0.8-3.6c0.3,0,0,1.3,0.5,3.5
						c0.4,2.1,1.6,5.1,4.3,7.8c2.7,2.7,7.1,4.5,12.2,4.7c2.5,0.1,5.3-0.1,8-0.8c0.7-0.2,1.4-0.3,2.1-0.5c0.7-0.2,1.4-0.4,2.1-0.6
						c1.4-0.4,2.7-1,4.1-1.6c5.4-2.5,10.1-6,13.8-9.7c3.7-3.7,6.6-7.5,8.8-10.9C879.8,517.1,881.5,512.3,882,512.5z"/>
				</g>
			</g>
		</g>
		<g id="XMLID_7_">
			<g>
				<g>
					<path class="st1" d="M713.3,480.7c0,0.2-2.1,0.2-5.7-0.9c-3.6-1.1-8.6-3.8-13.1-8.9c-2.3-2.5-4.4-5.6-6-9.3
						c-0.9-1.8-1.5-3.8-2.1-5.8c-0.5-2.1-1-4.2-1.2-6.5c-1-9,0.8-18.9,4.9-28.3c4.1-9.4,9.8-17.4,15.2-24.2
						c5.5-6.8,10.6-12.7,14.9-17.7c8.6-9.9,14.1-15.9,14.4-15.7c0.3,0.3-4.5,6.8-12.7,17.1c-4,5.2-9,11.2-14.3,18.1
						c-5.2,6.9-10.7,14.7-14.6,23.7c-3.9,9-5.7,18.4-4.9,26.7c0.6,8.4,4.1,15.4,8.1,20.4c4,5,8.6,7.7,11.8,9.2
						C711.4,480.1,713.4,480.5,713.3,480.7z"/>
				</g>
			</g>
		</g>
		<g id="XMLID_8_">
			<g>
				<g>
					<path class="st1" d="M808.8,518.1c0.2,0.1-0.3,2.1-2.1,5.5c-1.7,3.3-4.6,8.1-9.5,12.9c-2.4,2.4-5.4,4.7-8.9,6.7
						c-3.5,2-7.6,3.7-12,4.6c-4.5,1-9.3,1.2-14.2,0.6c-2.5-0.3-4.9-0.8-7.4-1.4c-1.2-0.3-2.4-0.7-3.7-1.1c-1.2-0.4-2.5-0.9-3.7-1.4
						c-9.7-4-17.7-10.5-22.9-17.9c-2.7-3.6-4.7-7.5-6.1-11.3c-1.4-3.8-2.3-7.3-3.2-10.5c-1.7-6.5-2.7-11.8-3.3-15.5
						c-0.6-3.7-0.7-5.8-0.5-5.8c0.5-0.1,2.1,8,6.1,20.6c1,3.2,2.1,6.6,3.5,10.2c1.4,3.5,3.4,7.1,6,10.5c5,6.9,12.6,12.9,21.8,16.7
						c1.1,0.5,2.3,0.9,3.4,1.3c1.2,0.4,2.3,0.7,3.5,1c2.3,0.6,4.6,1.1,6.9,1.4c4.6,0.6,9.1,0.5,13.2-0.3c4.2-0.8,8-2.3,11.3-4
						c3.3-1.8,6.2-3.8,8.6-6c4.8-4.3,7.9-8.7,10-11.8C807.6,519.9,808.6,518,808.8,518.1z"/>
				</g>
			</g>
		</g>
		<g id="XMLID_9_">
			<g>
				<g>
					<path class="st1" d="M751.7,398.5c0.4,0.2-0.3,3.1-2,7.8c-1.7,4.6-4.6,10.9-9.1,17.1c-4.5,6.2-9.8,10.9-14.1,13.5
						c-4.3,2.6-7.3,3.4-7.5,3c-0.2-0.4,2.4-1.9,6.2-4.9c3.8-3,8.5-7.6,12.7-13.5c4.3-5.9,7.4-11.8,9.6-16.1
						C749.9,401.1,751.3,398.4,751.7,398.5z"/>
				</g>
			</g>
		</g>
		<g id="XMLID_14_">
			<g>
				<g>
					<path class="st1" d="M753.7,480.7c0.2-0.2,1.4,0.8,3.7,2c1.2,0.5,2.7,1.2,4.3,0.8c0.7-0.2,1.5-0.7,1.9-1.4
						c0.5-0.7,0.8-1.7,0.9-2.8c0.1-1.1,0.1-2.3,0-3.6c0-0.7-0.1-1.3-0.2-2c-0.1-0.7-0.2-1.4-0.3-2.1c-0.4-2.8-1.1-5.7-2.1-8.7
						c-1-3-2.4-6-4.1-9c-0.9-1.5-1.8-2.9-2.9-4.4c-0.5-0.7-1.1-1.4-1.6-2.1c-0.6-0.7-1.1-1.4-1.7-2c-1.2-1.2-2.6-2.2-3.9-2.5
						c-1.3-0.3-2.6,0-3.6,0.8c-1,0.9-1.7,2.2-2.2,3.7c-0.2,0.7-0.4,1.5-0.5,2.2c-0.1,0.7-0.1,1.5-0.1,2.3c-0.1,3.1,0.5,6,1.3,8.6
						c0.8,2.6,1.9,5,3.1,7.1c2.3,4.2,4.8,7.3,6.5,9.5c1.7,2.1,2.7,3.3,2.5,3.5c-0.1,0.1-1.4-0.7-3.4-2.7c-2-1.9-4.8-4.9-7.5-9.1
						c-1.4-2.1-2.7-4.6-3.7-7.4c-1-2.8-1.7-6-1.8-9.5c0-0.9,0-1.7,0.1-2.6c0.1-0.9,0.3-1.8,0.5-2.7c0.5-1.8,1.4-3.7,3.1-5.2
						c0.8-0.7,1.9-1.3,3-1.6c1.1-0.3,2.4-0.3,3.5,0c2.2,0.6,3.9,1.9,5.4,3.4c0.7,0.7,1.4,1.5,2,2.2c0.6,0.7,1.2,1.5,1.7,2.3
						c1.1,1.5,2.1,3.1,3,4.7c1.8,3.2,3.2,6.4,4.2,9.6c1,3.2,1.6,6.3,2,9.3c0.1,0.7,0.2,1.5,0.2,2.2c0.1,0.7,0.1,1.4,0.1,2.1
						c0,1.4,0,2.8-0.2,4.1c-0.2,1.3-0.7,2.6-1.6,3.7c-0.9,1.1-2.1,1.7-3.2,1.9c-1.2,0.2-2.2,0-3.1-0.3c-0.9-0.3-1.6-0.7-2.2-1.1
						C754.4,482.2,753.6,480.8,753.7,480.7z"/>
				</g>
			</g>
		</g>
		<g id="XMLID_251_">
			<g>
				<g>
					<path class="st1" d="M773.3,458.5c-0.3,0.4-1,0.2-2,0.1c-0.9-0.1-2.2-0.2-3.5-0.1c-1.3,0.1-2.5,0.4-3.4,0.7
						c-0.9,0.3-1.6,0.5-2,0.2c-0.3-0.3-0.2-1.1,0.6-2.1c0.8-1,2.5-1.9,4.5-2.1c2-0.2,3.8,0.5,4.8,1.3
						C773.3,457.3,773.5,458.2,773.3,458.5z"/>
				</g>
			</g>
		</g>
		<g id="XMLID_265_">
			<g>
				<g>
					<path class="st1" d="M775.9,463.5c0.2-0.1,1.4,1.3,3.6,3.6c1.1,1.2,2.5,2.6,4.1,4.2c1.7,1.5,3.6,3.6,6,4.1
						c2.4,0.6,5.4-0.5,7.5-2.7c2.2-2.1,3.2-5.4,3.3-9c0-3.6-0.9-7.5-2.1-11.4c-1.2-3.9-2.9-7.8-5.1-11.6c-2.1-3.8-4.7-7.1-8-8.8
						c-1.7-0.8-3.5-1.3-5.2-1.2c-1.7,0.1-3.3,0.7-4.6,1.7c-2.6,2.1-3.8,5.5-4.3,8.7c-0.5,3.2-0.2,6.3,0.2,9.1
						c1,5.6,3.1,9.8,4.7,12.6c1.7,2.8,2.8,4.1,2.7,4.3c-0.1,0.1-1.6-1-3.7-3.6c-2.1-2.6-4.6-6.9-6-12.8c-0.6-3-1.1-6.3-0.6-9.9
						c0.2-1.8,0.7-3.7,1.4-5.5c0.8-1.8,2-3.7,3.6-5.1c1.7-1.4,4-2.4,6.3-2.5c2.3-0.1,4.7,0.4,6.8,1.5c2.1,1.1,3.9,2.6,5.5,4.4
						c1.5,1.8,2.8,3.7,3.9,5.7c2.3,4,4,8.1,5.3,12.3c1.2,4.1,2.2,8.3,2.1,12.4c0,2.1-0.4,4.1-1.1,6c-0.7,1.9-1.9,3.7-3.3,4.9
						c-1.4,1.3-3,2.3-4.8,2.8c-1.7,0.6-3.6,0.6-5.2,0.1c-1.7-0.4-3-1.4-4-2.3c-1-0.9-1.9-1.9-2.7-2.7c-1.6-1.7-2.9-3.3-3.8-4.7
						C776.6,465.3,775.8,463.7,775.9,463.5z"/>
				</g>
			</g>
		</g>
		<g id="XMLID_279_">
			<g>
				<g>
					<path class="st1" d="M758.1,468.3c-0.2,0.4-1.3,0.3-2.7-0.4c-1.4-0.7-3.3-1.9-4.9-3.7c-1.7-1.8-2.8-3.7-3.4-5.1
						c-0.6-1.5-0.6-2.5-0.3-2.7c0.8-0.4,3,2.5,6,5.6C755.8,465.2,758.6,467.5,758.1,468.3z"/>
				</g>
			</g>
		</g>
		<g id="XMLID_288_">
			<g>
				<g>
					<path class="st1" d="M788.3,460.8c-0.6,0.7-3.5-0.8-6.1-3.8c-2.6-2.9-3.7-6-3-6.5c0.8-0.5,3,1.6,5.4,4.3
						C787.1,457.6,788.9,460.1,788.3,460.8z"/>
				</g>
			</g>
		</g>
		<g id="XMLID_296_">
			<g>
				<g>
					<path class="st1" d="M779.4,488.1c0,0.2-0.8,0.3-2.2,0c-1.4-0.3-3.3-0.8-5.5-2.1c-2.2-1.3-4.6-3.4-6.1-6.6
						c-1.5-3.2-1.8-7-2.1-10.5c-1.2-14.3-6.1-25.1-5.2-25.5c0.4-0.2,2.1,2.3,4,6.8c1.9,4.5,3.8,11,4.5,18.4c0.3,3.7,0.5,7,1.6,9.6
						c1,2.6,2.9,4.6,4.7,5.9c1.8,1.4,3.5,2.2,4.6,2.8C778.8,487.5,779.5,487.8,779.4,488.1z"/>
				</g>
			</g>
		</g>
		<g id="XMLID_305_">
			<g>
				<g>
					<path class="st1" d="M795.2,490.9c0.4,0.2,0.1,1.4-1,2.9c-1.1,1.5-3,3.3-5.6,4.5c-2.6,1.2-5.2,1.6-7.1,1.4
						c-1.9-0.2-2.9-0.7-2.9-1.1c0.1-0.9,4.2-1.1,8.6-3.2C791.6,493.4,794.4,490.4,795.2,490.9z"/>
				</g>
			</g>
		</g>
		<g id="XMLID_314_">
			<g>
				<g>
					<path class="st1" d="M759.2,485.2c-0.2,0.4-2.4-0.3-5.6-2.3c-0.8-0.5-1.6-1.1-2.5-1.8c-0.9-0.7-1.7-1.5-2.6-2.4
						c-1.7-1.8-3.5-3.9-5-6.3c-1.5-2.4-2.7-5-3.5-7.3c-0.4-1.2-0.8-2.3-1-3.4c-0.3-1.1-0.4-2.1-0.6-3c-0.5-3.7-0.1-6,0.3-6.1
						c0.5,0,0.9,2.2,1.9,5.6c0.3,0.8,0.5,1.8,0.9,2.7c0.3,1,0.8,2,1.2,3.1c0.9,2.1,2.1,4.4,3.5,6.6c1.4,2.2,3,4.3,4.5,6
						c0.8,0.9,1.5,1.7,2.2,2.4c0.7,0.8,1.4,1.4,2.1,2C757.6,483.4,759.5,484.7,759.2,485.2z"/>
				</g>
			</g>
		</g>
		<g id="XMLID_323_">
			<g>
				<g>
					<path class="st1" d="M831,429.2c0.5,0.7-6.6,6.1-16.1,11.3c-9.5,5.3-17.8,8.4-18.2,7.6c-0.4-0.8,7.2-5.2,16.6-10.4
						C822.7,432.5,830.5,428.4,831,429.2z"/>
				</g>
			</g>
		</g>
		<g id="XMLID_332_">
			<g>
				<g>
					<path class="st1" d="M839.8,459.4c0.1-0.2,1.1,0.2,2.8,0.3c1.7,0.1,4.2-0.3,6.6-2.1c2.5-1.7,4.4-4.8,5.2-8.7
						c0.4-2,0.6-4.1,0.5-6.4c0-2.3-0.3-4.6-0.8-6.9c-0.5-2.3-1.3-4.4-2.5-6.2c-1.1-1.8-2.6-3.3-4.2-4.4c-1.6-1.1-3.3-1.8-5-2
						c-1.7-0.3-3.2,0-4.6,0.5c-2.7,1.1-4.5,3-5.2,4.5c-0.8,1.5-0.9,2.5-1.2,2.5c-0.2,0-0.6-1.1,0-3c0.5-1.9,2.2-4.5,5.5-6.1
						c0.8-0.4,1.7-0.7,2.7-0.9c1-0.2,2-0.2,3.1-0.1c2.1,0.2,4.4,0.9,6.3,2.2c2,1.3,3.8,3,5.2,5.2c1.4,2.1,2.3,4.6,2.9,7.2
						c0.6,2.6,0.8,5.1,0.8,7.5c0,2.4-0.2,4.8-0.8,7.1c-0.6,2.2-1.4,4.3-2.6,6c-1.2,1.7-2.7,3.1-4.2,4c-3.1,1.8-6.2,1.9-8.1,1.4
						C840.4,460.4,839.7,459.6,839.8,459.4z"/>
				</g>
			</g>
		</g>
		<g id="XMLID_341_">
			<g>
				<g>
					<path class="st1" d="M831.4,426.9c0.1,0.4-4.8,1.8-12.9,2.7c-4,0.4-8.9,0.8-14.3,0.7c-5.4-0.1-11.5-1-17.5-3.2
						c-3-1-5.8-2.3-8.5-3.7c-2.6-1.4-5.1-3-7.2-4.6c-4.4-3.2-7.9-6.8-10.5-10c-2.6-3.2-4.3-6.1-5.3-8.1c-1-2.1-1.4-3.3-1.2-3.4
						c0.5-0.3,2.8,4.2,8.3,10c2.7,2.9,6.2,6.1,10.5,9c2.1,1.5,4.5,2.9,7,4.2c2.5,1.2,5.2,2.5,8,3.4c11.3,4.1,22.6,3.4,30.5,3.3
						C826.3,427.1,831.3,426.5,831.4,426.9z"/>
				</g>
			</g>
		</g>
		<g id="XMLID_350_">
			<g>
				<g>
					<path class="st1" d="M929.3,474.6c-0.3-0.1,1.1-4.1,1.9-11.6c0.3-3.8,0.4-8.4-0.2-13.7c-0.4-2.6-0.8-5.5-1.6-8.4
						c-0.8-2.9-1.8-5.9-3.2-9c-2.7-6.1-6.8-12.3-12.4-17.8c-5.5-5.5-12.6-10.4-20.8-13.6c-4-1.6-8.7-2.6-13.1-5.4
						c-2.1-1.4-4.1-3.1-5.7-5.1c-1.6-2-2.9-4.2-4-6.5c-2.2-4.6-3.6-9.5-5-14.4c-0.7-2.4-1.4-4.9-2.2-7.2c-0.8-2.4-1.8-4.7-2.9-7
						c-4.5-9.1-11.1-16.9-19.2-21.8c-4-2.4-8.4-4.1-12.9-4.8c-4.4-0.8-9-0.5-13.3,0.1c-4.3,0.7-8.6,1.8-12.6,2.9
						c-4.1,1.1-8,2.4-11.8,3.7c-7.5,2.7-14.3,5.6-20.4,8.6c-12.2,5.9-21.4,11.9-27.7,16.3c-6.2,4.3-9.5,7-9.7,6.8
						c-0.1-0.1,0.7-0.8,2.2-2.2c0.7-0.7,1.7-1.5,2.8-2.4c1.1-0.9,2.4-2,4-3.2c6.1-4.7,15.2-11,27.4-17.3c6.1-3.1,13-6.2,20.5-9
						c3.8-1.4,7.7-2.7,11.9-3.9c4.1-1.2,8.4-2.4,13-3.1c4.5-0.7,9.4-1.1,14.3-0.2c4.9,0.8,9.7,2.5,14,5.1c4.4,2.6,8.3,6,11.8,9.9
						c3.4,3.9,6.4,8.4,8.7,13.2c1.2,2.4,2.2,4.9,3.1,7.3c0.8,2.5,1.6,5,2.3,7.4c1.4,4.9,2.7,9.6,4.8,13.9c1,2.1,2.2,4.1,3.6,5.9
						c1.4,1.7,3.1,3.2,4.9,4.4c3.7,2.4,8.2,3.4,12.5,5.2c8.6,3.4,15.9,8.6,21.6,14.5c5.7,5.9,9.9,12.4,12.6,18.8
						c1.3,3.2,2.3,6.4,3.1,9.4c0.7,3,1.2,6,1.4,8.7c0.5,5.5,0.2,10.2-0.3,14c-0.5,3.8-1.3,6.7-1.9,8.6
						C929.9,473.7,929.4,474.7,929.3,474.6z"/>
				</g>
			</g>
		</g>
		<g id="XMLID_358_">
			<g>
				<g>
					<path class="st1" d="M927.2,476.3c0.1,0,0,0.5-0.3,1.3c-0.2,0.4-0.4,0.9-0.6,1.5c-0.1,0.3-0.3,0.6-0.4,0.9
						c-0.2,0.3-0.4,0.7-0.6,1c-0.4,0.7-0.8,1.5-1.3,2.4c-0.5,0.9-1.2,1.8-1.8,2.7c-0.6,1-1.5,2-2.3,3c-0.8,1.1-1.8,2.1-2.8,3.2
						c-1,1.1-2.2,2.1-3.4,3.3c-0.6,0.6-1.3,1.1-1.9,1.6c-0.7,0.5-1.3,1.1-2,1.6c-0.7,0.5-1.5,1-2.2,1.5c-0.4,0.3-0.8,0.5-1.1,0.8
						c-0.4,0.2-0.8,0.5-1.2,0.7c-0.8,0.5-1.6,1-2.5,1.4c-0.9,0.4-1.7,0.9-2.6,1.3c-7.2,3.4-15.9,5.7-25.1,5.5
						c-4.6-0.1-9.2-0.8-13.3-2.5c-2.1-0.9-4-2-5.7-3.4c-1.7-1.4-3.1-2.9-4.4-4.4c-5.1-6.3-7.9-13-9.4-18.8c-1.5-5.8-1.7-10.7-1.5-14
						c0.2-3.3,0.7-5.1,0.9-5.1c0.3,0,0.2,1.8,0.4,5.1c0.2,3.2,0.7,7.9,2.4,13.4c1.7,5.4,4.6,11.8,9.5,17.5c2.4,2.8,5.4,5.3,9,6.8
						c3.7,1.5,7.9,2.1,12.2,2.2c8.7,0.1,16.9-1.9,23.8-5c0.9-0.4,1.7-0.8,2.5-1.2c0.8-0.4,1.6-0.9,2.4-1.3c0.4-0.2,0.8-0.4,1.2-0.6
						c0.4-0.2,0.7-0.5,1.1-0.7c0.7-0.5,1.5-0.9,2.2-1.4c0.7-0.5,1.3-1,2-1.5c0.6-0.5,1.3-0.9,1.9-1.5c1.2-1,2.4-1.9,3.4-3
						c1-1,2-1.9,2.9-2.9c0.9-1,1.7-1.8,2.4-2.8c0.7-0.9,1.4-1.7,2-2.5c0.6-0.8,1.1-1.5,1.5-2.2c0.2-0.3,0.5-0.6,0.7-0.9
						c0.2-0.3,0.4-0.6,0.5-0.9c0.3-0.5,0.6-1,0.9-1.3C926.8,476.6,927.1,476.2,927.2,476.3z"/>
				</g>
			</g>
		</g>
	</g>
</g>
<g id="tab">
	<path id="XMLID_16_" d="M714.1,192c-31.2,33.2-62.4,66.5-93.5,99.7c3.1,0,6.1,0,9.2,0c0.6,4,1.2,7.9,1.8,11.9
		c4.1,0.1,8.2,0.3,12.3,0.4c0.4,2.2,0.9,4.4,1.3,6.6c29.4-32.8,58.8-65.6,88.3-98.4c-1.3-0.1-9.4-0.6-14.9-7.5
		C714.3,199.5,714.1,193.7,714.1,192z"/>
	<path id="XMLID_13_" class="st0" d="M356.9,152.6c-0.4,89.8-0.8,179.7-1.3,269.5c27.1-0.2,54.1-0.5,81.2-0.6
		c81.4-0.5,162.7-0.7,244.1-0.6c-0.2-50.1-0.4-100.2-0.6-150.3c-11.4,12.9-22.8,25.8-34.2,38.7c-10.6,5.1-21.1,10.1-31.7,15.2
		c2.7-10.8,5.5-21.6,8.2-32.3c17.8-20.9,35.5-41.8,53.3-62.8c-0.2-26.2-0.4-52.4-0.6-78.6C569.1,151.3,463,151.9,356.9,152.6z"/>
	<path id="XMLID_15_" class="st0" d="M635.2,64.4c-1.5,41.2-3,82.4-4.4,123.6c6.3,15,12.7,30,19,45c9.1-1.3,18.2-2.5,27.3-3.8
		c11.8-13.1,23.7-26.2,35.5-39.3c0.3,2.5,1.3,7,4.4,11.4c5.5,7.7,13.7,9.7,15.9,10.1c-5.9,7.4-11.8,14.8-17.8,22.2
		c73.8-0.4,147.5-0.8,221.3-1.3c0.2-55.8,0.4-111.6,0.6-167.4C836.5,64.9,735.8,64.6,635.2,64.4z"/>
	<g id="XMLID_1098_">
		<g>
			<g>
				<path class="st1" d="M356.3,419.5c-0.9,0-1.6-60.2-1.6-134.4s0.7-134.4,1.6-134.4s1.6,60.2,1.6,134.4S357.2,419.5,356.3,419.5z"
					/>
			</g>
		</g>
	</g>
	<g id="XMLID_1106_">
		<g>
			<g>
				<ellipse class="st1" cx="520.7" cy="421.8" rx="159.9" ry="1.6"/>
			</g>
		</g>
	</g>
	<g id="XMLID_1114_">
		<g>
			<g>
				<path class="st1" d="M674.1,151.6c0,0.9-69.9,1.6-156.1,1.6s-156.1-0.7-156.1-1.6S431.8,150,518,150S674.1,150.7,674.1,151.6z"
					/>
			</g>
		</g>
	</g>
	<g id="XMLID_1123_">
		<g>
			<g>
				<path class="st1" d="M675.3,226.4c-0.9,0-1.6-17-1.6-37.9s0.7-37.9,1.6-37.9s1.6,17,1.6,37.9S676.2,226.4,675.3,226.4z"/>
			</g>
		</g>
	</g>
	<g id="XMLID_1132_">
		<g>
			<g>
				<path class="st1" d="M734.5,169.7c0.2,0.2-1.3,1.9-4.1,5c-2.8,3.1-6.8,7.5-11.9,13c-10.1,10.9-24.1,25.9-39.5,42.5
					C663.8,246.9,650,262,640,273c-5,5.5-9.1,9.9-12,12.9c-2.9,3-4.5,4.6-4.7,4.5c-0.2-0.1,1.2-2,3.7-5.3c2.6-3.3,6.4-7.9,11.2-13.6
					c9.6-11.4,23.1-26.8,38.5-43.4c15.4-16.7,29.7-31.4,40.2-41.9c5.3-5.2,9.6-9.4,12.6-12.2C732.6,171.1,734.4,169.6,734.5,169.7z"
					/>
			</g>
		</g>
	</g>
	<g id="XMLID_1141_">
		<g>
			<g>
				<path class="st1" d="M748.4,195.6c0.3,0.3-5.1,6.9-14.1,17.3c-9,10.4-21.7,24.7-35.8,40.3c-14.1,15.6-27.1,29.6-36.5,39.7
					c-9.5,10-15.5,16.1-15.8,15.8s5.1-6.9,14.1-17.3c9-10.4,21.7-24.7,35.8-40.3c14.1-15.6,27.1-29.7,36.6-39.7
					C742.1,201.4,748.1,195.3,748.4,195.6z"/>
			</g>
		</g>
	</g>
	<g id="XMLID_1150_">
		<g>
			<g>
				<path class="st1" d="M736,211.1c0,0.4-1.9,1.1-5.1,0.7c-3.1-0.3-7.6-1.9-11.1-5.4c-3.5-3.5-5.1-8-5.4-11.1
					c-0.3-3.2,0.3-5.1,0.7-5.1c0.5,0,0.7,1.9,1.5,4.6c0.8,2.7,2.5,6.3,5.5,9.3c3,3,6.6,4.6,9.3,5.5C734.1,210.5,736,210.6,736,211.1
					z"/>
			</g>
		</g>
	</g>
	<g id="XMLID_1159_">
		<g>
			<g>
				<path class="st1" d="M751.8,189c-0.5,0-0.7-1.8-1.3-4.3c-0.6-2.6-1.9-6-4.4-8.9c-2.6-2.8-6-4.1-8.5-4.4
					c-2.5-0.4-4.2,0.1-4.4-0.4c-0.1-0.2,0.2-0.6,1-1c0.7-0.4,1.9-0.8,3.5-0.9c1.5-0.1,3.4,0.1,5.3,0.8c1.9,0.7,3.9,1.9,5.5,3.7
					c1.6,1.7,2.7,3.7,3.3,5.6c0.7,1.9,0.9,3.7,1,5.1C752.8,187.3,752.2,189,751.8,189z"/>
			</g>
		</g>
	</g>
	<g id="XMLID_1168_">
		<g>
			<g>
				<path class="st1" d="M749.6,191c0.1,0.2-0.1,0.6-0.8,1.2c-0.7,0.6-1.9,1.2-3.6,1.4c-1.6,0.2-3.6-0.1-5.6-0.9
					c-2-0.9-4-2.3-5.5-4.4c-1.4-2-2.2-4.3-2.6-6.3c-0.4-2-0.5-3.9-0.4-5.4c0.2-3,0.8-4.8,1.2-4.8c0.5,0,0.7,1.9,1.1,4.7
					c0.4,2.8,1.1,6.6,3.4,9.9c1.1,1.6,2.6,2.8,4.1,3.6c1.5,0.8,3,1.2,4.3,1.3C747.7,191.5,749.3,190.6,749.6,191z"/>
			</g>
		</g>
	</g>
	<g id="XMLID_1176_">
		<g>
			<g>
				<path class="st1" d="M613.9,325.1c-0.9-0.2,0.5-8.3,3.1-18.1c2.6-9.8,5.3-17.5,6.2-17.3c0.9,0.2-0.5,8.3-3.1,18.1
					S614.8,325.3,613.9,325.1z"/>
			</g>
		</g>
	</g>
	<g id="XMLID_1184_">
		<g>
			<g>
				<path class="st1" d="M644.4,308.7c0.4,0.8-6.2,5.2-14.8,9.8c-8.6,4.6-15.9,7.7-16.4,6.9c-0.4-0.8,6.2-5.2,14.8-9.8
					C636.6,311,644,307.9,644.4,308.7z"/>
			</g>
		</g>
	</g>
	<g id="XMLID_1192_">
		<g>
			<g>
				<path class="st1" d="M644.3,310.6c-0.2,0-0.3-0.6-0.4-1.6c0-0.5-0.1-1.1-0.2-1.7c0-0.3-0.1-0.7-0.1-1.1l0-0.3c0-0.1,0-0.1,0-0.2
					c0-0.1-0.1-0.2-0.1-0.3c0-0.1-0.1-0.2-0.1-0.3l0-0.1c0,0-0.1,0-0.2,0c-0.2,0-0.4,0-0.6,0.1c-1,0-2.1,0-3.3,0
					c-1.2,0-2.4-0.1-3.6-0.1c-0.6,0-1.3-0.1-1.9-0.1l-0.7,0c-0.3,0-0.6-0.1-0.8-0.1c-0.5-0.1-1-0.4-1.4-0.8
					c-0.3-0.3-0.5-0.7-0.6-1.2c-0.1-0.2-0.1-0.4-0.1-0.7l-0.1-0.5c-0.1-0.5-0.2-1-0.2-1.5c-0.1-1-0.3-2-0.4-2.9
					c-0.1-0.9-0.2-1.9-0.3-2.7c0-0.2,0-0.4-0.1-0.7c0-0.1,0-0.2,0-0.3c0-0.2,0-0.3,0-0.5c-0.2,0-0.4-0.1-0.6-0.1
					c-0.5-0.1-1-0.1-1.5-0.1c-1-0.1-1.8-0.2-2.5-0.3c-1.4-0.2-2.1-0.5-2.1-0.8s0.8-0.5,2.1-0.7c0.7-0.1,1.5-0.2,2.5-0.3
					c0.5,0,0.9-0.1,1.6-0.1c0.9,0,1.8-0.1,2.8-0.1c0.4,1.9,0.8,4,1.2,6.3c0.2,0.9,0.3,1.9,0.5,2.9c0.1,0.5,0.2,1,0.3,1.5l0.1,0.3
					c0,0.1,0,0.1,0.1,0.2c0,0.1,0.1,0.1,0.2,0.1l0.1,0l0.3,0c0.6,0,1.3,0.1,1.9,0.1c1.2,0.1,2.5,0.2,3.6,0.3
					c1.1,0.1,2.2,0.2,3.3,0.3c0.8,0.1,1.6,0.1,2.3,0.2c0.2,0,0.4,0,0.5,0.1c0,0.2,0,0.4,0,0.6c0,0.4,0,0.7,0.1,1c0,0.3,0,0.7,0,1
					c0,0.2,0,0.3,0,0.5l0,0.3c0,0.4-0.1,0.8-0.1,1.2c-0.1,0.7-0.3,1.3-0.4,1.8C644.8,310.2,644.5,310.6,644.3,310.6z"/>
			</g>
		</g>
	</g>
	<g id="XMLID_1200_">
		<g>
			<g>
				<path class="st1" d="M680.4,418.5c-0.9,0-1.6-32.5-1.6-72.5s0.7-72.5,1.6-72.5s1.6,32.5,1.6,72.5S681.3,418.5,680.4,418.5z"/>
			</g>
		</g>
	</g>
	<g id="XMLID_1208_">
		<g>
			<g>
				<path class="st1" d="M662.9,178.8c0,0.9-66.1,1.6-147.7,1.6s-147.7-0.7-147.7-1.6s66.1-1.6,147.7-1.6S662.9,177.9,662.9,178.8z"
					/>
			</g>
		</g>
	</g>
	<g id="XMLID_1216_">
		<g>
			<g>
				
					<ellipse transform="matrix(5.245255e-02 -0.9986 0.9986 5.245255e-02 417.7513 770.2593)" class="st1" cx="614.8" cy="165" rx="1.6" ry="8.4"/>
			</g>
		</g>
	</g>
	<g id="XMLID_1224_">
		<g>
			<g>
				<path class="st1" d="M658.3,168.1c-0.3,0.9-4.1,0.5-8.5-0.9c-4.5-1.3-7.9-3.1-7.6-4c0.3-0.9,4.1-0.5,8.5,0.9
					C655.1,165.4,658.5,167.2,658.3,168.1z"/>
			</g>
		</g>
	</g>
	<g id="XMLID_1234_">
		<g>
			<g>
				<path class="st1" d="M643.4,169.9c-0.6-0.6,1.5-3.8,5.2-6.6c3.7-2.8,7.3-4.1,7.7-3.3c0.5,0.8-2.3,3.2-5.8,5.9
					C647.1,168.6,644,170.6,643.4,169.9z"/>
			</g>
		</g>
	</g>
	<g id="XMLID_1243_">
		<g>
			<g>
				<path class="st1" d="M444.3,211.2c0,0.9-13.4,1.6-30,1.6c-16.6,0-30-0.7-30-1.6s13.4-1.6,30-1.6
					C430.9,209.5,444.3,210.3,444.3,211.2z"/>
			</g>
		</g>
	</g>
	<g id="XMLID_1251_">
		<g>
			<g>
				<path class="st1" d="M514.5,227.4c0,0.9-24,1.6-53.6,1.6s-53.6-0.7-53.6-1.6s24-1.6,53.6-1.6S514.5,226.5,514.5,227.4z"/>
			</g>
		</g>
	</g>
	<g id="XMLID_1259_">
		<g>
			<g>
				<ellipse class="st1" cx="440" cy="249.6" rx="38.8" ry="1.6"/>
			</g>
		</g>
	</g>
	<g id="XMLID_1267_">
		<g>
			<g>
				<ellipse class="st1" cx="475.1" cy="284.1" rx="77.9" ry="1.6"/>
			</g>
		</g>
	</g>
	<g id="XMLID_1275_">
		<g>
			<g>
				<path class="st1" d="M463.2,332c0,0.9-15.8,1.6-35.4,1.6c-19.5,0-35.4-0.7-35.4-1.6s15.8-1.6,35.4-1.6
					C447.4,330.4,463.2,331.1,463.2,332z"/>
			</g>
		</g>
	</g>
	<g id="XMLID_1283_">
		<g>
			<g>
				<path class="st1" d="M534.8,347.5c0,0.9-11,1.6-24.6,1.6c-13.6,0-24.6-0.7-24.6-1.6s11-1.6,24.6-1.6
					C523.7,345.9,534.8,346.6,534.8,347.5z"/>
			</g>
		</g>
	</g>
	<g id="XMLID_1291_">
		<g>
			<g>
				<ellipse class="st1" cx="483.8" cy="372.5" rx="84.6" ry="1.6"/>
			</g>
		</g>
	</g>
	<g id="XMLID_1299_">
		<g>
			<g>
				<path class="st1" d="M635.4,66.1c0.9,0,1.6,18.9,1.6,42.1s-0.7,42.1-1.6,42.1s-1.6-18.9-1.6-42.1S634.5,66.1,635.4,66.1z"/>
			</g>
		</g>
	</g>
	<g id="XMLID_1307_">
		<g>
			<g>
				<path class="st1" d="M938.9,65.4c0,0.9-67.6,1.6-151,1.6s-151-0.7-151-1.6s67.6-1.6,151-1.6S938.9,64.5,938.9,65.4z"/>
			</g>
		</g>
	</g>
	<g id="XMLID_1315_">
		<g>
			<g>
				<ellipse class="st1" cx="937.7" cy="141.3" rx="1.6" ry="73.8"/>
			</g>
		</g>
	</g>
	<g id="XMLID_1323_">
		<g>
			<g>
				<ellipse class="st1" cx="826.7" cy="232.8" rx="106.9" ry="1.6"/>
			</g>
		</g>
	</g>
	<g id="XMLID_1331_">
		<g>
			<g>
				<path class="st1" d="M677.2,87.7c0,0.9-6.6,1.6-14.8,1.6c-8.2,0-14.8-0.7-14.8-1.6s6.6-1.6,14.8-1.6
					C670.5,86,677.2,86.8,677.2,87.7z"/>
			</g>
		</g>
	</g>
	<g id="XMLID_1339_">
		<g>
			<g>
				<ellipse class="st1" cx="664.4" cy="96.4" rx="12.8" ry="1.6"/>
			</g>
		</g>
	</g>
	<g id="XMLID_1347_">
		<g>
			<g>
				<path class="st1" d="M831,118c0,0.9-39.2,1.6-87.7,1.6s-87.7-0.7-87.7-1.6s39.2-1.6,87.7-1.6S831,117.1,831,118z"/>
			</g>
		</g>
	</g>
	<g id="XMLID_1355_">
		<g>
			<g>
				<path class="st1" d="M776.4,130.2c0,0.9-17.8,1.6-39.8,1.6s-39.8-0.7-39.8-1.6s17.8-1.6,39.8-1.6S776.4,129.3,776.4,130.2z"/>
			</g>
		</g>
	</g>
	<g id="XMLID_1363_">
		<g>
			<g>
				<path class="st1" d="M804,150.4c0,0.9-27.3,1.6-61,1.6c-33.7,0-61-0.7-61-1.6s27.3-1.6,61-1.6C776.7,148.8,804,149.5,804,150.4z
					"/>
			</g>
		</g>
	</g>
	<g id="XMLID_1371_">
		<g>
			<g>
				<path class="st1" d="M887.7,168.7c0,0.9-26,1.6-58,1.6s-58-0.7-58-1.6s26-1.6,58-1.6S887.7,167.8,887.7,168.7z"/>
			</g>
		</g>
	</g>
	<g id="XMLID_1379_">
		<g>
			<g>
				<path class="st1" d="M892.5,185.5c0,0.9-21.7,1.6-48.5,1.6c-26.8,0-48.5-0.7-48.5-1.6s21.7-1.6,48.5-1.6
					C870.7,183.9,892.5,184.6,892.5,185.5z"/>
			</g>
		</g>
	</g>
	<g id="XMLID_1387_">
		<g>
			<g>
				<path class="st1" d="M899.2,211.2c0,0.9-26,1.6-58,1.6s-58-0.7-58-1.6s26-1.6,58-1.6S899.2,210.3,899.2,211.2z"/>
			</g>
		</g>
	</g>
</g>
</svg>
