<svg xmlns="http://www.w3.org/2000/svg" xmlns:xlink="http://www.w3.org/1999/xlink" width="501.332" height="501.332" version="1.1" viewBox="0 0 13264 13264" xml:space="preserve" style="shape-rendering:geometricPrecision;text-rendering:geometricPrecision;image-rendering:optimizeQuality;fill-rule:evenodd;clip-rule:evenodd"><defs><style type="text/css">.fil0{fill:none}.fil3{fill:#fefefe}.fil2{fill:#000;fill-opacity:.25098}.fil4{fill:#fefefe;fill-opacity:.309804}.fil1{fill:url(#id0)}</style><radialGradient id="id0" cx="3536.24" cy="11026.5" r="3119.49" fx="3536.24" fy="11026.5" gradientTransform="matrix(1.42775 -2.01902 2.01902 1.42775 -23775 2423)" gradientUnits="userSpaceOnUse"><stop offset="0" style="stop-opacity:1;stop-color:#fd5"/><stop offset=".471" style="stop-opacity:1;stop-color:#fa5148"/><stop offset=".8" style="stop-opacity:1;stop-color:#c837ab"/><stop offset="1" style="stop-opacity:1;stop-color:#c837ab"/></radialGradient></defs><g id="Layer_x0020_1"><metadata id="CorelCorpID_0Corel-Layer"/><g id="_2991466320608"><rect width="13264" height="13264" class="fil0"/><g><path d="M3621 1639l6023 0c1090,0 1982,892 1982,1982l0 6023c0,1090 -892,1982 -1982,1982l-6023 0c-1090,0 -1982,-892 -1982,-1982l0 -6023c0,-1090 892,-1982 1982,-1982z" class="fil1"/><path d="M4840 2989l3304 0c1157,0 2103,946 2103,2103l0 3304c0,1157 -946,2104 -2103,2104l-3304 0c-1157,0 -2103,-947 -2103,-2104l0 -3304c0,-1157 946,-2103 2103,-2103zm3659 1296c247,0 447,200 447,448 0,247 -200,447 -447,447 -248,0 -448,-200 -448,-447 0,-248 200,-448 448,-448zm-1997 1203c691,0 1250,560 1250,1250 0,690 -559,1250 -1250,1250 -690,0 -1250,-560 -1250,-1250 0,-690 560,-1250 1250,-1250zm0 -690c1072,0 1941,869 1941,1940 0,1072 -869,1940 -1941,1940 -1071,0 -1940,-868 -1940,-1940 0,-1071 869,-1940 1940,-1940zm-1649 -1147l3278 0c800,0 1455,654 1455,1455l0 3277c0,800 -655,1455 -1455,1455l-3278 0c-800,0 -1455,-655 -1455,-1455l0 -3277c0,-801 655,-1455 1455,-1455z" class="fil2"/><path d="M4980 2877l3304 0c1157,0 2104,946 2104,2103l0 3304c0,1157 -947,2104 -2104,2104l-3304 0c-1157,0 -2103,-947 -2103,-2104l0 -3304c0,-1157 946,-2103 2103,-2103zm3659 1296c247,0 447,200 447,448 0,247 -200,447 -447,447 -248,0 -448,-200 -448,-447 0,-248 200,-448 448,-448zm-1996 1203c690,0 1250,560 1250,1250 0,690 -560,1250 -1250,1250 -691,0 -1250,-560 -1250,-1250 0,-690 559,-1250 1250,-1250zm0 -690c1071,0 1940,868 1940,1940 0,1071 -869,1940 -1940,1940 -1072,0 -1941,-869 -1941,-1940 0,-1072 869,-1940 1941,-1940zm-1649 -1148l3277 0c800,0 1455,655 1455,1456l0 3277c0,800 -655,1455 -1455,1455l-3277 0c-801,0 -1455,-655 -1455,-1455l0 -3277c0,-801 654,-1456 1455,-1456z" class="fil3"/><path d="M9328 2600c732,0 1331,607 1331,1349l0 5586c0,742 -599,1349 -1331,1349l442 0c732,0 1331,-607 1331,-1349l0 -6033c0,-742 -599,-1349 -1331,-1349l-5952 0c-732,0 -1331,607 -1331,1349l0 447c0,-742 599,-1349 1331,-1349l5510 0z" class="fil4"/></g></g></g></svg>